<svg width="17" height="17" viewBox="0 0 17 17" fill="none" xmlns="http://www.w3.org/2000/svg">
<path d="M7.93715 0.246003C8.06972 -0.0767931 8.52124 -0.0767925 8.65381 0.246004L10.668 5.15057C10.7239 5.28665 10.8503 5.37963 10.9954 5.39141L16.2236 5.8159C16.5677 5.84384 16.7072 6.27874 16.445 6.50617L12.4617 9.96185C12.3512 10.0577 12.3029 10.2082 12.3367 10.3515L13.5536 15.5185C13.6337 15.8585 13.2684 16.1273 12.9739 15.9451L8.49777 13.1762C8.37358 13.0994 8.21738 13.0994 8.09319 13.1762L3.61711 15.9451C3.32251 16.1273 2.95723 15.8585 3.03732 15.5185L4.2543 10.3515C4.28807 10.2082 4.2398 10.0577 4.12928 9.96185L0.145929 6.50617C-0.116237 6.27874 0.0232898 5.84384 0.367387 5.8159L5.5956 5.39141C5.74067 5.37963 5.86703 5.28665 5.92292 5.15057L7.93715 0.246003Z" fill="#FFC045"/>
</svg>
