<svg width="160" height="45" viewBox="0 0 160 45" fill="none" xmlns="http://www.w3.org/2000/svg">
<g id="Gama">
<path d="M20.9744 42.963C22.9376 42.963 24.1796 42.6024 24.7005 41.8812C25.2614 41.1601 25.5419 39.9381 25.5419 38.2152V26.5561H21.6956V25.234H39.0039V26.5561H36.6601V43.5039H35.7586C35.0374 42.5023 34.0157 42.0014 32.6936 42.0014C32.1327 42.0014 30.4499 42.362 27.6453 43.0832C24.8808 43.8044 22.5169 44.165 20.5537 44.165C14.023 44.165 8.95467 42.4021 5.34877 38.8763C1.78292 35.3505 0 30.0619 0 23.0103C0 15.9187 1.86305 10.4497 5.58916 6.60344C9.35533 2.75714 14.4036 0.833984 20.734 0.833984C23.178 0.833984 25.622 1.15451 28.066 1.79556C30.5501 2.39654 31.9924 2.69704 32.3931 2.69704C32.7937 2.69704 33.0942 2.61691 33.2946 2.45664C33.4949 2.25632 33.7152 1.93579 33.9556 1.49507H34.6167L35.0975 14.5364H34.0157C32.0525 10.6501 30.0693 7.60508 28.066 5.40147C26.1028 3.15779 23.8992 2.03595 21.4552 2.03595C15.3251 2.03595 12.2601 8.02577 12.2601 20.0054V24.7532C12.2601 30.763 13.0013 35.3105 14.4837 38.3955C16.0062 41.4405 18.1698 42.963 20.9744 42.963Z" fill="#BAC4D1"/>
<path d="M55.6977 29.4409H57.4405V24.8133C57.4405 21.007 57.2202 18.4629 56.7794 17.1808C56.3788 15.8586 55.5775 15.1975 54.3755 15.1975C53.6543 15.1975 52.9932 15.3978 52.3923 15.7985C51.8313 16.1591 51.5509 16.6799 51.5509 17.3611C51.5509 18.0021 51.6711 18.6632 51.9115 19.3443H53.4139C53.7345 20.1857 53.8947 21.2074 53.8947 22.4093C53.8947 23.5712 53.3939 24.5929 52.3923 25.4744C51.3906 26.3157 50.1286 26.7364 48.6061 26.7364C45.1604 26.7364 43.4376 25.0737 43.4376 21.7483C43.4376 16.8202 47.6244 14.3561 55.9982 14.3561C60.766 14.3561 64.0514 15.1775 65.8543 16.8202C67.6973 18.4228 68.6189 21.3877 68.6189 25.7148V37.9147C68.6189 39.9982 69.1998 41.0399 70.3617 41.0399C71.7239 41.0399 72.5253 38.9765 72.7656 34.8497L73.6671 34.9098C73.5069 38.4356 72.8458 40.8596 71.6839 42.1817C70.522 43.5039 68.6189 44.165 65.9745 44.165C61.1666 44.165 58.4021 42.6826 57.6809 39.7177C57.1601 41.2402 56.3788 42.362 55.3371 43.0832C54.2954 43.8044 52.7729 44.165 50.7696 44.165C44.8399 44.165 41.875 41.741 41.875 36.8931C41.875 34.0484 42.9969 32.1052 45.2405 31.0635C47.5243 29.9817 51.01 29.4409 55.6977 29.4409ZM53.2937 36.833C53.2937 38.9164 53.3939 40.2586 53.5942 40.8596C53.8346 41.4606 54.2553 41.761 54.8563 41.761C55.4973 41.761 56.0783 41.2602 56.5992 40.2586C57.1601 39.2169 57.4405 37.7945 57.4405 35.9916V30.4024H57.0198C54.5358 30.4024 53.2937 32.2254 53.2937 35.8714V36.833Z" fill="#BAC4D1"/>
<path d="M74.2578 14.9571H88.7415V20.4862C90.0637 16.3995 92.9684 14.3561 97.4558 14.3561C101.983 14.3561 104.728 16.5197 105.689 20.8468C107.092 16.5197 110.036 14.3561 114.524 14.3561C120.413 14.3561 123.358 17.7016 123.358 24.3926V42.4822H126.724V43.564H110.076V42.4822H112.18V22.9502C112.18 19.9052 111.919 18.1223 111.399 17.6015C111.158 17.3611 110.838 17.2409 110.437 17.2409C109.275 17.2409 108.253 18.0221 107.372 19.5847C106.491 21.1473 106.05 23.1305 106.05 25.5345V42.4822H108.213V43.564H92.7681V42.4822H94.8716V22.9502C94.8716 19.9052 94.6111 18.1223 94.0903 17.6015C93.8499 17.3611 93.5294 17.2409 93.1287 17.2409C92.0069 17.2409 90.9852 18.1023 90.0637 19.8251C89.1822 21.5079 88.7415 23.5312 88.7415 25.8951V42.4822H90.9051V43.564H74.2578V42.4822H77.5632V16.0389H74.2578V14.9571Z" fill="#BAC4D1"/>
<path d="M142.031 29.4409H143.773V24.8133C143.773 21.007 143.553 18.4629 143.112 17.1808C142.712 15.8586 141.91 15.1975 140.708 15.1975C139.987 15.1975 139.326 15.3978 138.725 15.7985C138.164 16.1591 137.884 16.6799 137.884 17.3611C137.884 18.0021 138.004 18.6632 138.244 19.3443H139.747C140.067 20.1857 140.228 21.2074 140.228 22.4093C140.228 23.5712 139.727 24.5929 138.725 25.4744C137.723 26.3157 136.461 26.7364 134.939 26.7364C131.493 26.7364 129.77 25.0737 129.77 21.7483C129.77 16.8202 133.957 14.3561 142.331 14.3561C147.099 14.3561 150.384 15.1775 152.187 16.8202C154.03 18.4228 154.952 21.3877 154.952 25.7148V37.9147C154.952 39.9982 155.533 41.0399 156.695 41.0399C158.057 41.0399 158.858 38.9765 159.099 34.8497L160 34.9098C159.84 38.4356 159.179 40.8596 158.017 42.1817C156.855 43.5039 154.952 44.165 152.307 44.165C147.5 44.165 144.735 42.6826 144.014 39.7177C143.493 41.2402 142.712 42.362 141.67 43.0832C140.628 43.8044 139.106 44.165 137.102 44.165C131.173 44.165 128.208 41.741 128.208 36.8931C128.208 34.0484 129.33 32.1052 131.573 31.0635C133.857 29.9817 137.343 29.4409 142.031 29.4409ZM139.627 36.833C139.627 38.9164 139.727 40.2586 139.927 40.8596C140.167 41.4606 140.588 41.761 141.189 41.761C141.83 41.761 142.411 41.2602 142.932 40.2586C143.493 39.2169 143.773 37.7945 143.773 35.9916V30.4024H143.353C140.869 30.4024 139.627 32.2254 139.627 35.8714V36.833Z" fill="#BAC4D1"/>
</g>
</svg>
