<svg width="160" height="52" viewBox="0 0 160 52" fill="none" xmlns="http://www.w3.org/2000/svg">
<g id="gamerzone">
<path d="M22.912 40.3365C21.141 40.3365 20.3662 39.2296 20.4769 37.1266C20.5876 36.1304 20.5876 35.4663 20.5876 35.1342C20.5876 36.4625 20.6982 31.2602 20.9196 19.4168C21.0303 11.1154 20.9196 6.02386 20.5876 4.1422C20.4769 1.81779 19.37 0.710938 17.267 0.710938C16.9349 0.710938 16.6029 0.710938 16.2708 0.821622C13.725 3.69946 10.8472 5.80248 7.63732 7.02003V20.7451C7.748 24.8404 7.748 27.1648 7.748 27.829C7.748 30.8175 9.07623 32.9205 11.7327 34.2487L15.7174 29.2679V38.0121C15.7174 39.6723 15.6067 40.8899 15.496 41.554L14.0571 43.4357C11.1793 46.7562 8.96555 48.7486 7.41595 49.302C5.4236 50.0768 2.98852 49.9661 0 48.9699C1.32823 50.5195 3.20989 51.2943 5.75566 51.2943C9.18692 51.2943 12.3968 49.8554 15.6067 46.8669C19.8128 42.9929 22.2478 40.7792 22.912 40.3365ZM15.7174 26.8328C15.3853 27.0542 14.9426 27.1648 14.6105 27.1648C13.9464 27.1648 13.393 26.7221 12.9502 25.7259C12.7289 25.3939 12.6182 24.9511 12.6182 24.3977L12.5075 11.6688C12.5075 9.34443 12.5075 7.90551 12.6182 7.35209C12.6182 5.91317 13.1716 5.13837 14.1678 5.13837C15.3853 5.13837 15.9388 6.90934 15.8281 10.3406L15.7174 26.8328Z" fill="#BAC4D1"/>
<path d="M38.3742 29.3786C38.3742 29.2679 38.3742 29.2679 38.2636 29.2679H37.9315C36.3819 29.4892 35.4964 28.7144 35.3857 26.9435C35.6071 15.5428 35.7178 9.5658 35.7178 8.90169C35.8285 4.03151 35.0537 1.37505 33.6148 0.93231C33.5041 0.821622 33.0613 1.04299 32.3972 1.48574C30.2942 2.48191 28.6339 3.14602 27.4163 3.47808C25.3133 4.47426 23.9851 6.02386 23.4317 8.12689C22.8782 10.2299 23.2103 12.4436 24.2065 14.8787L23.0996 15.7642V26.2794C23.2103 27.2755 23.2103 27.829 23.2103 27.829C23.321 30.8175 24.6492 32.9205 27.195 34.2487L30.7369 29.7106C31.1797 31.703 32.3972 33.2526 34.5002 34.2487L38.3742 29.3786ZM30.6262 9.67649C28.5232 10.4513 26.5309 12.665 24.6492 14.436C24.5385 13.6612 24.4278 12.9971 24.4278 12.3329C24.4278 10.0085 25.424 8.45894 27.527 7.68414L30.6262 7.02003V9.67649ZM30.6262 29.2679C29.0766 29.4892 28.1911 28.7144 28.0805 26.9435C28.0805 26.8328 28.0805 26.8328 28.0805 26.8328H27.9698V18.642C27.9698 14.9894 28.8553 12.4436 30.6262 11.1154L30.5156 25.6152C30.5156 27.3862 30.5156 28.6038 30.6262 29.2679Z" fill="#BAC4D1"/>
<path d="M65.5433 29.3786C65.5433 29.2679 65.5433 29.2679 65.4326 29.2679H65.1005C63.6616 29.4892 62.7761 28.7144 62.5548 26.9435L62.7761 14.2146C62.8868 11.0047 62.8868 9.23374 62.8868 8.90169C62.8868 6.35591 62.8868 4.80631 62.7761 4.25288C62.5548 2.59259 61.8906 1.48574 60.8945 1.04299L55.0281 5.24906C54.8068 3.03534 54.1426 1.59642 52.9251 1.04299L46.9481 5.35974C46.8374 3.03534 46.1733 1.59642 44.9557 1.04299L39.3107 5.13837C39.4214 5.24906 39.5321 5.24906 39.6428 5.24906C41.5245 5.13837 41.9672 6.24523 41.9672 8.45894L41.8565 25.6152C41.8565 27.7183 41.9672 29.0465 42.0779 29.8213C42.5206 31.8136 43.7382 33.2526 45.8412 34.2487L49.6045 29.3786C49.6045 29.2679 49.6045 29.2679 49.4938 29.2679H49.2725C47.7229 29.4892 46.8374 28.7144 46.616 26.9435C46.9481 15.2108 47.0588 9.23374 47.0588 8.90169V7.13071C47.3908 7.02003 47.7229 6.90934 47.8336 6.79866C48.1656 6.68797 48.387 6.68797 48.6084 6.79866C49.1618 6.79866 49.6045 7.13071 49.8259 7.90551C49.9366 8.56963 49.9366 9.12306 49.8259 9.5658L49.9366 25.6152C49.9366 28.161 49.9366 29.5999 50.0473 29.8213C50.6007 31.8136 51.8182 33.2526 53.9213 34.2487L57.6846 29.3786C57.6846 29.2679 57.6846 29.2679 57.5739 29.2679H57.2418C55.6922 29.4892 54.8068 28.7144 54.6961 26.9435L54.9174 14.2146C55.0281 10.0085 55.0281 7.57346 55.0281 7.02003L55.8029 6.79866C56.0243 6.68797 56.2457 6.68797 56.467 6.79866C57.2418 6.79866 57.5739 7.13071 57.6846 7.90551C57.7953 8.45894 57.7953 9.01237 57.6846 9.5658L57.7953 25.6152C57.7953 27.9396 57.906 29.2679 58.0166 29.8213C58.5701 31.8136 59.7876 33.2526 61.78 34.2487L65.5433 29.3786Z" fill="#BAC4D1"/>
<path d="M79.3894 9.78717C78.8359 9.12306 78.5039 8.34826 78.5039 7.57346C78.3932 4.58494 78.1718 2.70328 77.8398 1.92848C77.6184 1.37505 77.2863 0.93231 76.7329 0.710938L66.7712 7.90551C66.6605 8.0162 66.6605 8.12689 66.7712 8.23757V24.5084C66.7712 26.7221 66.8819 28.161 66.9926 28.8251C67.546 31.1495 69.2063 32.9205 72.0841 34.0274L73.523 34.6915L74.0765 34.138C76.9543 31.2602 78.7253 28.2717 79.2787 25.1725C79.6107 23.5122 79.5001 21.9626 79.0573 20.5237V20.413L77.065 17.0924C78.0611 20.1916 78.2825 22.6267 77.6184 24.5084L76.9543 26.058C75.9581 27.4969 75.0726 28.2717 74.0765 28.4931C72.3055 28.9358 71.42 27.3862 71.42 23.8443V19.8596C72.8589 16.4283 74.9619 13.4398 77.8398 11.0047C78.6146 10.4513 78.9466 10.1192 79.0573 10.0085L79.3894 9.78717ZM74.0765 12.3329C73.191 14.436 72.3055 15.9856 71.42 16.9817V6.57728C71.42 6.4666 71.5307 6.4666 71.6414 6.4666C71.8627 6.35591 72.0841 6.35591 72.4162 6.4666C72.8589 6.4666 73.191 6.68797 73.523 7.13071C73.8551 7.90551 74.0765 9.67649 74.0765 12.3329Z" fill="#BAC4D1"/>
<path d="M95.099 8.56963C95.3203 6.90934 94.5455 5.35974 92.6639 3.69946C91.1143 2.26054 89.454 1.37505 87.7937 0.93231C87.4617 1.26437 87.0189 2.26054 86.4655 3.69946C86.1334 2.37122 85.58 1.48574 84.6945 1.04299L79.0495 5.13837C79.1602 5.24906 79.2709 5.24906 79.3816 5.24906C81.2633 5.13837 81.706 6.24523 81.706 8.45894L81.5953 25.6152C81.5953 27.7183 81.706 29.0465 81.8167 29.8213C82.2594 31.8136 83.477 33.2526 85.58 34.2487L89.3433 29.3786C89.3433 29.2679 89.3433 29.2679 89.2326 29.2679H89.0113C87.4617 29.4892 86.5762 28.7144 86.3548 26.9435C86.6869 15.2108 86.7975 9.23374 86.7975 8.90169V7.13071C87.1296 6.79866 87.5723 6.68797 88.0151 6.79866C89.0113 6.90934 89.6754 8.0162 89.8967 9.89786C90.0074 10.4513 89.8968 11.3368 89.6754 12.5543L95.099 8.56963Z" fill="#BAC4D1"/>
<path d="M112.778 26.1687C112.224 26.7221 111.228 27.0542 109.789 27.0542H101.266C102.262 24.7298 103.48 22.0733 104.698 18.9741C105.251 19.3062 105.583 19.6382 105.694 19.9703V20.081C105.804 20.1916 105.804 20.1916 105.804 20.3023C106.026 19.9703 107.133 18.8634 109.125 16.9817C110.564 15.6535 111.117 14.3253 110.896 12.9971C109.9 14.1039 108.35 14.6573 106.468 14.6573C109.236 7.90551 111.007 3.47808 112.003 1.48574H111.892L112.003 1.37505H109.9C107.354 1.26437 105.583 1.26437 104.698 1.26437C102.816 1.15368 101.598 1.26437 101.266 1.37505C100.381 1.70711 99.606 2.48191 98.9418 3.81014L96.9495 7.68414C97.5029 7.13071 98.4991 6.90934 99.938 6.90934H107.354L104.144 14.6573C101.488 14.6573 99.4953 15.9856 98.1671 18.642L97.3923 20.1916C100.27 19.1955 101.93 18.642 102.484 18.5313L101.377 21.1878L98.7205 27.0542L97.7243 29.2679C97.6136 29.3786 97.6136 29.4892 97.6136 29.5999L95.8426 33.4739H97.2816C97.6136 33.5846 97.835 33.5846 97.835 33.5846H104.698C106.69 33.5846 107.907 33.4739 108.35 33.2526C109.125 32.9205 109.9 32.035 110.675 30.5961L112.778 26.1687Z" fill="#BAC4D1"/>
<path d="M126.427 22.0733C125.985 21.6306 125.763 20.9664 125.653 20.1916C125.763 14.436 125.874 10.6727 125.985 8.791C125.985 7.13071 125.874 5.58111 125.763 4.03151C125.431 1.81779 124.324 0.710938 122.332 0.710938C122 0.710938 121.779 0.710938 121.447 0.821622C118.901 3.69946 116.023 5.80248 112.813 7.02003V9.78717C112.813 13.2184 112.813 16.8711 112.924 20.9664V27.829C113.034 30.8175 114.363 32.9205 116.908 34.2487L126.427 22.0733ZM122.111 25.7259C121.336 26.7221 120.561 27.1648 119.786 27.1648C118.347 27.1648 117.683 26.2794 117.794 24.3977H117.683V7.35209C117.794 5.6918 118.79 5.13837 119.343 5.13837C120.34 5.13837 120.893 6.90934 120.893 10.3406V14.768C120.893 14.5467 120.893 15.4321 120.782 17.4245C120.782 17.4245 120.782 17.9779 120.782 19.1955V18.5313C120.782 22.184 121.225 24.5084 122.111 25.7259Z" fill="#BAC4D1"/>
<path d="M146.214 29.3786C146.214 29.2679 146.214 29.2679 146.104 29.2679H145.771C144.222 29.4892 143.336 28.7144 143.226 26.9435L143.447 14.2146C143.558 11.0047 143.558 9.23374 143.558 8.90169C143.558 6.35591 143.558 4.80631 143.447 4.25288C143.226 2.59259 142.562 1.48574 141.455 1.04299L135.478 5.35974C135.367 3.03534 134.703 1.59642 133.485 1.04299L127.84 5.13837C127.951 5.24906 128.062 5.24906 128.172 5.24906C130.054 5.13837 130.497 6.24523 130.497 8.45894L130.386 25.6152C130.386 27.7183 130.497 29.0465 130.607 29.8213C131.05 31.8136 132.268 33.2526 134.371 34.2487L138.134 29.3786C138.134 29.2679 138.134 29.2679 138.023 29.2679H137.802C136.252 29.4892 135.367 28.7144 135.146 26.9435C135.478 15.2108 135.588 9.23374 135.588 8.90169V7.13071C135.92 7.02003 136.252 6.90934 136.363 6.79866C136.695 6.68797 136.917 6.68797 137.138 6.79866C137.691 6.79866 138.134 7.13071 138.355 7.90551C138.466 8.56963 138.466 9.12306 138.355 9.5658L138.466 25.6152C138.466 28.161 138.466 29.5999 138.577 29.8213C139.13 31.8136 140.348 33.2526 142.451 34.2487L146.214 29.3786Z" fill="#BAC4D1"/>
<path d="M159.918 9.78717C159.364 9.12306 159.032 8.34826 159.032 7.57346C158.921 4.58494 158.7 2.70328 158.368 1.92848C158.147 1.37505 157.815 0.93231 157.261 0.710938L147.299 7.90551C147.189 8.0162 147.189 8.12689 147.299 8.23757V24.5084C147.299 26.7221 147.41 28.161 147.521 28.8251C148.074 31.1495 149.735 32.9205 152.612 34.0274L154.051 34.6915L154.605 34.138C157.483 31.2602 159.253 28.2717 159.807 25.1725C160.139 23.5122 160.028 21.9626 159.586 20.5237V20.413L157.593 17.0924C158.589 20.1916 158.811 22.6267 158.147 24.5084L157.483 26.058C156.486 27.4969 155.601 28.2717 154.605 28.4931C152.834 28.9358 151.948 27.3862 151.948 23.8443V19.8596C153.387 16.4283 155.49 13.4398 158.368 11.0047C159.143 10.4513 159.475 10.1192 159.586 10.0085L159.918 9.78717ZM154.605 12.3329C153.719 14.436 152.834 15.9856 151.948 16.9817V6.57728C151.948 6.4666 152.059 6.4666 152.17 6.4666C152.391 6.35591 152.612 6.35591 152.944 6.4666C153.387 6.4666 153.719 6.68797 154.051 7.13071C154.383 7.90551 154.605 9.67649 154.605 12.3329Z" fill="#BAC4D1"/>
</g>
</svg>
