<svg width="160" height="32" viewBox="0 0 160 32" fill="none" xmlns="http://www.w3.org/2000/svg">
<g id="gomezbuzz">
<path d="M10.7145 13.0732C10.6189 12.8533 10.485 12.6285 10.3129 12.3991C10.1503 12.1696 9.95906 11.9592 9.73913 11.7679C9.5192 11.5767 9.28014 11.4237 9.02196 11.309C8.76378 11.1846 8.49126 11.1225 8.20439 11.1225C7.81234 11.1225 7.4442 11.2851 7.09996 11.6102C6.75571 11.9353 6.4545 12.3704 6.19632 12.9154C5.93814 13.4509 5.73256 14.0677 5.57956 14.7657C5.43613 15.4542 5.36441 16.1714 5.36441 16.9172C5.36441 17.3762 5.40266 17.8113 5.47916 18.2225C5.56522 18.6241 5.69431 18.9779 5.86643 19.2839C6.03855 19.5898 6.25848 19.8337 6.52622 20.0154C6.80353 20.1971 7.13342 20.2879 7.51591 20.2879C8.08965 20.2879 8.61557 20.111 9.09368 19.7572C9.57179 19.3938 9.97819 18.9253 10.3129 18.3515C10.3224 18.1507 10.3368 17.9117 10.3559 17.6344C10.375 17.3571 10.3989 17.0224 10.4276 16.6303C10.4563 16.2287 10.4898 15.7602 10.528 15.2247C10.5758 14.6796 10.6332 14.0342 10.7001 13.2883L10.7145 13.0732ZM15.4621 21.7366C15.3665 22.6832 15.1514 23.5677 14.8167 24.3901C14.482 25.2124 14.0565 25.9631 13.5401 26.642C13.0333 27.3305 12.45 27.9425 11.7902 28.4779C11.14 29.023 10.4467 29.482 9.71044 29.8549C8.98371 30.2278 8.23308 30.5099 7.45854 30.7012C6.684 30.902 5.91902 31.0024 5.1636 31.0024C4.76199 31.0024 4.35081 30.988 3.93008 30.9593C3.50934 30.9307 3.09816 30.8733 2.69655 30.7872C2.29493 30.7107 1.91245 30.596 1.54908 30.443C1.18572 30.2995 0.860601 30.1131 0.573734 29.8836V29.8692C0.573734 29.8214 0.607202 29.6541 0.674137 29.3672C0.750635 29.0804 0.836695 28.7409 0.932317 28.3489C1.0375 27.9664 1.14269 27.5695 1.24787 27.1584C1.36262 26.7472 1.45824 26.3934 1.53474 26.0969C1.57299 25.9631 1.61124 25.8722 1.64948 25.8244C1.68773 25.7766 1.73076 25.7527 1.77857 25.7527C1.83595 25.7527 1.86942 25.7575 1.87898 25.767C2.15628 25.9487 2.41446 26.0969 2.65352 26.2117C2.90214 26.336 3.16032 26.4316 3.42806 26.4986C3.70536 26.5751 4.00657 26.6277 4.33169 26.6563C4.65681 26.685 5.03451 26.6994 5.46481 26.6994C6.13417 26.6994 6.72703 26.5703 7.24339 26.3121C7.75975 26.0539 8.20439 25.7192 8.57732 25.3081C8.95025 24.8969 9.24668 24.4427 9.46661 23.9454C9.6961 23.4578 9.85388 22.9749 9.93994 22.4968C9.25146 22.9558 8.55341 23.3287 7.84581 23.6155C7.1382 23.9024 6.42582 24.0458 5.70865 24.0458C4.72374 24.0458 3.8727 23.845 3.15554 23.4434C2.43837 23.0514 1.84551 22.5207 1.37696 21.8513C0.908412 21.182 0.55939 20.417 0.329897 19.5564C0.109966 18.6862 0 17.7778 0 16.8311C0 16.0853 0.0669356 15.3347 0.200807 14.5792C0.34424 13.8143 0.549828 13.078 0.817571 12.3704C1.09488 11.6628 1.43433 11.003 1.83595 10.391C2.23756 9.76944 2.70133 9.22917 3.22725 8.77019C3.75318 8.3112 4.33647 7.95262 4.97714 7.69444C5.61781 7.42669 6.31585 7.29282 7.07127 7.29282C7.89362 7.29282 8.65382 7.4745 9.35186 7.83787C10.0595 8.20123 10.7001 8.65066 11.2739 9.18614C11.293 9.01402 11.3073 8.88015 11.3169 8.78453C11.3265 8.67935 11.3504 8.59807 11.3886 8.54069C11.4269 8.48332 11.489 8.44029 11.5751 8.4116C11.6707 8.38292 11.8046 8.34945 11.9767 8.3112C12.0819 8.29208 12.2731 8.25383 12.5504 8.19645C12.8277 8.12952 13.1576 8.05302 13.5401 7.96696C13.9226 7.8809 14.3433 7.79006 14.8023 7.69444C15.2613 7.59881 15.7251 7.49841 16.1936 7.39323C16.3084 7.36454 16.4136 7.3502 16.5092 7.3502C16.8056 7.3502 16.9538 7.54144 16.9538 7.92393C16.9538 7.97174 16.9538 8.01955 16.9538 8.06736C16.9538 8.10561 16.9491 8.14864 16.9395 8.19645L15.4621 21.7366Z" fill="#BAC4D1"/>
<path d="M26.736 24.0458C25.3877 24.0458 24.202 23.8259 23.1788 23.3861C22.1652 22.9462 21.3142 22.3629 20.6257 21.6362C19.9372 20.8999 19.4209 20.0584 19.0766 19.1117C18.7324 18.1555 18.5603 17.1658 18.5603 16.1427C18.5603 15.1195 18.7276 14.1489 19.0623 13.231C19.397 12.3034 19.8655 11.4763 20.468 10.7496C21.0704 10.0133 21.7923 9.40129 22.6338 8.91362C23.4753 8.41638 24.4028 8.08171 25.4164 7.90959C25.5694 7.90002 25.6459 7.86656 25.6459 7.80918C25.6459 7.704 25.6316 7.60838 25.6029 7.52232C25.5837 7.42669 25.5742 7.34541 25.5742 7.27848C25.5742 7.17329 25.5933 7.10158 25.6316 7.06333C25.6698 7.02508 25.7128 7.00596 25.7606 7.00596C27.587 7.00596 29.1409 7.21632 30.4222 7.63706C31.7036 8.04824 32.7459 8.61241 33.5491 9.32958C34.3523 10.0467 34.9356 10.893 35.299 11.8683C35.6623 12.8437 35.844 13.8908 35.844 15.0095C35.844 16.4343 35.605 17.7061 35.1269 18.8249C34.6487 19.9437 33.9937 20.8903 33.1618 21.6649C32.3395 22.4394 31.3737 23.0275 30.2645 23.4291C29.1648 23.8403 27.9886 24.0458 26.736 24.0458ZM24.0825 15.9849C24.0825 16.5012 24.1351 17.0128 24.2403 17.5196C24.355 18.0264 24.5367 18.4854 24.7853 18.8966C25.0435 19.3078 25.3782 19.6424 25.7893 19.9006C26.2005 20.1492 26.7121 20.2735 27.3241 20.2735C27.7639 20.2544 28.1464 20.1588 28.4715 19.9867C28.8062 19.805 29.0931 19.5755 29.3321 19.2982C29.5712 19.0113 29.7672 18.691 29.9202 18.3372C30.0828 17.9834 30.2071 17.62 30.2931 17.2471C30.3888 16.8646 30.4557 16.4917 30.4939 16.1283C30.5322 15.765 30.5513 15.4351 30.5513 15.1386C30.5513 14.6414 30.4748 14.1537 30.3218 13.6756C30.1784 13.1975 29.9632 12.7768 29.6764 12.4134C29.3895 12.05 29.0309 11.7584 28.6006 11.5385C28.1799 11.309 27.6922 11.1942 27.1376 11.1942C26.5639 11.1942 26.081 11.3663 25.6889 11.7106C25.2969 12.0452 24.9813 12.4612 24.7423 12.9584C24.5128 13.4557 24.3454 13.9816 24.2403 14.5362C24.1351 15.0813 24.0825 15.5642 24.0825 15.9849Z" fill="#BAC4D1"/>
<path d="M58.5639 23.8164C58.4587 23.845 58.32 23.8881 58.1479 23.9454C57.9758 24.0124 57.8085 24.0458 57.6459 24.0458C57.512 24.0458 57.3925 24.0124 57.2873 23.9454C57.1917 23.8785 57.1439 23.7638 57.1439 23.6012V23.5151C57.2108 22.8171 57.2682 22.2529 57.316 21.8226C57.3638 21.3828 57.4021 21.029 57.4307 20.7612C57.4594 20.4935 57.4833 20.2927 57.5025 20.1588C57.5216 20.0154 57.5407 19.8863 57.5598 19.7715C57.579 19.6472 57.5933 19.5134 57.6029 19.3699C57.622 19.2265 57.6459 19.0257 57.6746 18.7675C57.7033 18.4998 57.7367 18.1507 57.775 17.7204C57.8228 17.2806 57.8802 16.7068 57.9471 15.9992C57.9854 15.6167 58.0236 15.239 58.0619 14.8661C58.1097 14.4836 58.1336 14.1346 58.1336 13.819C58.1336 13.4174 58.1097 13.0541 58.0619 12.7289C58.0236 12.3943 57.9471 12.1122 57.8324 11.8827C57.7272 11.6436 57.579 11.4572 57.3877 11.3233C57.1965 11.1894 56.9526 11.1225 56.6562 11.1225C56.4745 11.1225 56.2355 11.1607 55.939 11.2372C55.6522 11.3137 55.3605 11.4524 55.0641 11.6532C54.7677 11.8444 54.4999 12.1026 54.2609 12.4277C54.0218 12.7433 53.8688 13.1449 53.8019 13.6326V13.69C53.6871 14.78 53.582 15.7267 53.4863 16.5299C53.4003 17.3236 53.3238 18.0073 53.2568 18.581C53.1899 19.1548 53.1325 19.6329 53.0847 20.0154C53.0465 20.3979 53.013 20.723 52.9843 20.9907C52.9556 21.2489 52.9317 21.464 52.9126 21.6362C52.903 21.8083 52.8983 21.9708 52.8983 22.1238C52.8983 22.2003 52.8983 22.2673 52.8983 22.3246C52.9078 22.3725 52.9126 22.4155 52.9126 22.4537C52.9126 22.5302 52.8743 22.5972 52.7978 22.6545C52.7309 22.7024 52.5731 22.7645 52.3245 22.841L48.9538 23.8164C48.8486 23.845 48.71 23.8881 48.5379 23.9454C48.3658 24.0124 48.1984 24.0458 48.0359 24.0458C47.902 24.0458 47.7825 24.0124 47.6773 23.9454C47.5817 23.8785 47.5338 23.7638 47.5338 23.6012V23.5151C47.6008 22.8171 47.6534 22.2529 47.6916 21.8226C47.7394 21.3828 47.7777 21.029 47.8064 20.7612C47.8446 20.4935 47.8733 20.2927 47.8924 20.1588C47.9115 20.0154 47.9259 19.8863 47.9355 19.7715C47.9546 19.6472 47.9737 19.5134 47.9928 19.3699C48.012 19.2265 48.0311 19.0257 48.0502 18.7675C48.0789 18.4998 48.1124 18.1507 48.1506 17.7204C48.1984 17.2806 48.2558 16.7068 48.3227 15.9992C48.361 15.6167 48.3992 15.239 48.4375 14.8661C48.4853 14.4836 48.5092 14.1346 48.5092 13.819C48.5092 13.4174 48.4901 13.0541 48.4518 12.7289C48.4136 12.3943 48.3419 12.1122 48.2367 11.8827C48.141 11.6436 48.0072 11.4572 47.8351 11.3233C47.6629 11.1894 47.443 11.1225 47.1753 11.1225C46.984 11.1225 46.7211 11.1703 46.3864 11.2659C46.0613 11.3616 45.7314 11.5193 45.3967 11.7393C45.0716 11.9592 44.7799 12.2508 44.5217 12.6142C44.2731 12.968 44.1297 13.4079 44.0914 13.9338C44.0149 14.6414 43.9528 15.2247 43.905 15.6837C43.8572 16.1331 43.8189 16.506 43.7902 16.8025C43.7615 17.0893 43.7376 17.3236 43.7185 17.5053C43.709 17.6774 43.6994 17.84 43.6898 17.993C43.6803 18.0312 43.6659 18.1412 43.6468 18.3229C43.6277 18.495 43.6038 18.7053 43.5751 18.954C43.556 19.193 43.532 19.456 43.5034 19.7428C43.4842 20.0201 43.4651 20.2831 43.446 20.5317C43.4269 20.7708 43.4077 20.9812 43.3886 21.1628C43.3791 21.335 43.3743 21.4401 43.3743 21.4784V21.7366C43.3743 21.8322 43.3695 21.9135 43.3599 21.9804C43.3504 22.0473 43.3217 22.1095 43.2739 22.1669C43.2261 22.2242 43.1543 22.2768 43.0587 22.3246C42.9727 22.3725 42.8484 22.4251 42.6858 22.4824L38.9278 23.8164C38.8227 23.8546 38.684 23.9024 38.5119 23.9598C38.3398 24.0172 38.1724 24.0458 38.0099 24.0458C37.876 24.0458 37.7565 24.0124 37.6513 23.9454C37.5557 23.8785 37.5078 23.7638 37.5078 23.6012L38.7987 8.97099C38.8274 8.65544 38.8609 8.44029 38.8991 8.32554C38.947 8.20123 39.0569 8.11996 39.229 8.08171C40.0992 7.90959 40.9885 7.73747 41.8969 7.56535C42.8053 7.38366 43.6946 7.15417 44.5648 6.87686C44.6413 6.87686 44.6843 6.89121 44.6939 6.9199C44.713 6.93902 44.7225 6.97249 44.7225 7.0203L44.5361 9.11443C44.8899 8.93274 45.2867 8.73672 45.7266 8.52635C46.1664 8.30642 46.6254 8.10561 47.1035 7.92393C47.5912 7.74225 48.0837 7.59403 48.5809 7.47929C49.0877 7.35498 49.5802 7.29282 50.0583 7.29282C50.7181 7.29282 51.3253 7.44582 51.8799 7.75181C52.444 8.04824 52.9078 8.54547 53.2712 9.24352C53.7015 8.96621 54.1557 8.70803 54.6338 8.46898C55.1215 8.22992 55.6139 8.02433 56.1112 7.85221C56.618 7.68009 57.1248 7.54622 57.6316 7.4506C58.1384 7.35498 58.6308 7.30717 59.1089 7.30717C59.7113 7.30717 60.2803 7.39323 60.8158 7.56535C61.3513 7.73747 61.815 8.01955 62.2071 8.4116C62.6087 8.80365 62.9242 9.31523 63.1537 9.94634C63.3832 10.5679 63.498 11.3281 63.498 12.2269C63.498 12.4564 63.4932 12.6955 63.4836 12.9441C63.4741 13.1832 63.455 13.4318 63.4263 13.69L62.7665 19.8289C62.7187 20.2305 62.69 20.6034 62.6804 20.9477C62.6708 21.2824 62.6661 21.6744 62.6661 22.1238C62.6661 22.2003 62.6661 22.2673 62.6661 22.3246C62.6756 22.3725 62.6804 22.4155 62.6804 22.4537C62.6804 22.5398 62.6422 22.6067 62.5657 22.6545C62.4987 22.7024 62.341 22.7645 62.0923 22.841L58.5639 23.8164Z" fill="#BAC4D1"/>
<path d="M74.2125 7.29282C75.1209 7.29282 75.9432 7.46494 76.6795 7.80918C77.4254 8.14386 78.0613 8.58372 78.5872 9.12877C79.1227 9.66426 79.5338 10.2667 79.8207 10.936C80.1076 11.6054 80.251 12.2747 80.251 12.9441C80.251 13.537 80.0693 14.1346 79.706 14.737C79.3426 15.3299 78.831 15.8654 78.1712 16.3435C77.521 16.8216 76.7369 17.2089 75.8189 17.5053C74.9009 17.8017 73.8921 17.9499 72.7925 17.9499C72.2187 17.9499 71.6163 17.8926 70.9852 17.7778C71.0235 18.189 71.143 18.5428 71.3438 18.8392C71.5446 19.1356 71.798 19.3795 72.104 19.5707C72.41 19.762 72.7542 19.9054 73.1367 20.001C73.5288 20.0871 73.9304 20.1301 74.3416 20.1301C74.8005 20.1301 75.2404 20.0919 75.6611 20.0154C76.0914 19.9293 76.5026 19.8193 76.8947 19.6855C77.2867 19.5516 77.6644 19.4034 78.0278 19.2408C78.3912 19.0783 78.7354 18.9157 79.0605 18.7532C79.1466 18.734 79.2183 18.7197 79.2757 18.7101C79.3426 18.691 79.4047 18.6814 79.4621 18.6814C79.4621 18.6814 79.4573 18.7579 79.4478 18.9109C79.4478 19.0639 79.4478 19.2791 79.4478 19.5564C79.4478 19.8337 79.443 20.1684 79.4334 20.5604C79.4334 20.9525 79.4287 21.3875 79.4191 21.8657C79.4478 21.9135 79.4669 21.9613 79.4765 22.0091C79.486 22.0569 79.4908 22.0952 79.4908 22.1238C79.4908 22.2386 79.3856 22.3629 79.1753 22.4968C78.9649 22.6306 78.6876 22.7693 78.3433 22.9127C78.0087 23.0562 77.6214 23.1948 77.1815 23.3287C76.7512 23.4626 76.3114 23.5821 75.8619 23.6873C75.4125 23.802 74.9774 23.8881 74.5567 23.9454C74.136 24.0124 73.7678 24.0458 73.4523 24.0458C72.4195 24.0458 71.4155 23.8642 70.4402 23.5008C69.4744 23.147 68.6138 22.6354 67.8584 21.9661C67.1125 21.2967 66.5149 20.4839 66.0654 19.5277C65.616 18.5715 65.3913 17.4957 65.3913 16.3004C65.3913 15.0478 65.6065 13.8764 66.0368 12.7863C66.4671 11.6867 67.0695 10.7304 67.844 9.91765C68.6281 9.10486 69.5604 8.4642 70.641 7.99565C71.7215 7.5271 72.912 7.29282 74.2125 7.29282ZM74.0403 11.1082C73.6483 11.1082 73.2849 11.1942 72.9502 11.3663C72.6251 11.5289 72.3239 11.7679 72.0466 12.0835C71.7789 12.3895 71.5446 12.7624 71.3438 13.2023C71.143 13.6326 70.9804 14.1107 70.8561 14.6366C71.841 14.4645 72.6586 14.2828 73.3088 14.0916C73.9591 13.9003 74.4802 13.7091 74.8723 13.5178C75.2643 13.317 75.5416 13.121 75.7042 12.9298C75.8667 12.7289 75.948 12.5377 75.948 12.356C75.948 12.1839 75.8811 12.0213 75.7472 11.8683C75.6229 11.7154 75.4651 11.5815 75.2739 11.4667C75.0826 11.352 74.8723 11.2659 74.6428 11.2086C74.4228 11.1416 74.222 11.1082 74.0403 11.1082Z" fill="#BAC4D1"/>
<path d="M83.9803 23.3C83.789 23.3 83.5834 23.2904 83.3635 23.2713C83.1531 23.2522 82.9571 23.2187 82.7754 23.1709C82.6033 23.1135 82.4551 23.0418 82.3308 22.9558C82.216 22.8697 82.1587 22.7549 82.1587 22.6115C82.1587 22.602 82.1635 22.5876 82.173 22.5685C82.1826 22.5494 82.1874 22.5302 82.1874 22.5111L87.2506 12.1265C86.8489 12.1265 86.3995 12.1361 85.9023 12.1552C85.4051 12.1648 84.903 12.1791 84.3962 12.1982C83.899 12.2078 83.4209 12.2174 82.9619 12.2269C82.5125 12.2365 82.13 12.2413 81.8144 12.2413C81.7188 12.2413 81.6471 12.2126 81.5993 12.1552C81.5515 12.0883 81.5276 12.0166 81.5276 11.9401V11.8827L82.9762 8.42595C83.0527 8.16777 83.1962 8.00043 83.4065 7.92393C83.6169 7.84743 83.8273 7.80918 84.0377 7.80918C85.7206 7.80918 87.3701 7.83787 88.9861 7.89524C90.6117 7.95262 92.2612 7.9813 93.9346 7.9813C94.0397 7.9813 94.1449 8.01477 94.2501 8.08171C94.3649 8.14864 94.4222 8.22992 94.4222 8.32554C94.4222 8.3351 94.4127 8.36857 94.3935 8.42595L89.8467 18.3515C89.8467 18.3707 89.8706 18.385 89.9184 18.3946C89.9758 18.4041 90.0427 18.4137 90.1192 18.4233C90.2053 18.4328 90.2866 18.4376 90.3631 18.4376C90.4491 18.4376 90.5208 18.4376 90.5782 18.4376C91.1806 18.4376 91.7639 18.4233 92.3281 18.3946C92.8923 18.3659 93.4612 18.3515 94.035 18.3515C94.1401 18.3515 94.231 18.3754 94.3075 18.4233C94.384 18.4711 94.4222 18.5667 94.4222 18.7101C94.4222 18.7292 94.4127 18.7388 94.3935 18.7388L92.5863 22.5111C92.5002 22.6928 92.3472 22.8362 92.1273 22.9414C91.9074 23.0466 91.6396 23.1279 91.3241 23.1852C91.0085 23.2331 90.6547 23.2665 90.2627 23.2857C89.8802 23.2952 89.4833 23.3 89.0722 23.3H83.9803Z" fill="#BAC4D1"/>
<path d="M102.325 18.6241C102.421 18.8153 102.555 19.0113 102.727 19.2121C102.909 19.4034 103.114 19.5803 103.344 19.7428C103.583 19.9054 103.841 20.0393 104.118 20.1445C104.396 20.2401 104.683 20.2879 104.979 20.2879C105.39 20.2879 105.777 20.1301 106.141 19.8146C106.504 19.4894 106.82 19.0591 107.087 18.5237C107.365 17.9786 107.58 17.3619 107.733 16.6734C107.886 15.9753 107.962 15.2534 107.962 14.5075C107.962 14.0485 107.919 13.6135 107.833 13.2023C107.757 12.7911 107.632 12.4325 107.46 12.1265C107.288 11.8205 107.063 11.5767 106.786 11.395C106.518 11.2133 106.193 11.1225 105.811 11.1225C105.189 11.1225 104.62 11.3042 104.104 11.6675C103.588 12.0309 103.153 12.4947 102.799 13.0588L102.325 18.6241ZM96.9897 24.0028C96.8558 24.0315 96.7506 24.0458 96.6741 24.0458C96.3681 24.0458 96.2151 23.8642 96.2151 23.5008C96.2151 23.453 96.2151 23.4052 96.2151 23.3574C96.2247 23.3096 96.2343 23.257 96.2438 23.1996L97.9077 2.90376C97.9077 2.87507 97.9077 2.84639 97.9077 2.8177C97.9172 2.78901 97.922 2.76511 97.922 2.74598C97.922 2.70773 97.9172 2.67427 97.9077 2.64558C97.9077 2.61689 97.9077 2.59299 97.9077 2.57386C97.9077 2.4878 97.9363 2.42087 97.9937 2.37305C98.0607 2.31568 98.2232 2.25353 98.4814 2.18659L102.512 1.22559C102.617 1.20646 102.756 1.16343 102.928 1.0965C103.1 1.02956 103.267 0.996094 103.43 0.996094C103.554 0.996094 103.669 1.02478 103.774 1.08215C103.889 1.13953 103.946 1.24949 103.946 1.41205C103.946 1.43118 103.941 1.4503 103.932 1.46942C103.932 1.48855 103.932 1.50767 103.932 1.5268C103.922 1.57461 103.898 1.78498 103.86 2.1579C103.822 2.53083 103.779 2.98504 103.731 3.52052C103.683 4.04645 103.631 4.6154 103.573 5.22738C103.516 5.8298 103.463 6.39875 103.416 6.93424C103.368 7.46016 103.325 7.90959 103.286 8.28251C103.248 8.65544 103.224 8.86581 103.215 8.91362C103.913 8.45463 104.635 8.07214 105.381 7.76615C106.126 7.4506 106.872 7.29282 107.618 7.29282C108.603 7.29282 109.454 7.49841 110.171 7.90959C110.888 8.3112 111.481 8.85147 111.95 9.53038C112.418 10.1997 112.763 10.9743 112.983 11.854C113.212 12.7337 113.327 13.6421 113.327 14.5792C113.327 15.3347 113.255 16.0949 113.112 16.8598C112.978 17.6152 112.777 18.342 112.509 19.04C112.251 19.7381 111.921 20.3931 111.52 21.0051C111.127 21.617 110.673 22.1477 110.157 22.5972C109.65 23.0466 109.081 23.4004 108.45 23.6586C107.819 23.9168 107.135 24.0458 106.399 24.0458C105.51 24.0458 104.697 23.8498 103.961 23.4578C103.224 23.0657 102.541 22.5589 101.909 21.9374C101.89 22.1669 101.876 22.3486 101.866 22.4824C101.857 22.6163 101.823 22.7215 101.766 22.798C101.718 22.8649 101.642 22.9223 101.537 22.9701C101.431 23.0083 101.274 23.0514 101.063 23.0992C100.958 23.1279 100.772 23.1757 100.504 23.2426C100.246 23.3 99.9301 23.3669 99.5572 23.4434C99.1938 23.5295 98.7874 23.6203 98.338 23.716C97.8981 23.8116 97.4487 23.9072 96.9897 24.0028Z" fill="#BAC4D1"/>
<path d="M130.367 21.5214C130.338 21.837 130.3 22.0569 130.252 22.1812C130.204 22.296 130.099 22.3725 129.936 22.4107C129.124 22.6402 128.273 22.8745 127.383 23.1135C126.504 23.343 125.648 23.649 124.816 24.0315C124.787 24.0411 124.744 24.0458 124.687 24.0458C124.61 24.0458 124.562 24.0267 124.543 23.9885C124.534 23.9502 124.529 23.9072 124.529 23.8594C124.529 23.8403 124.529 23.8068 124.529 23.759C124.538 23.7112 124.553 23.6203 124.572 23.4865C124.591 23.3621 124.615 23.1852 124.644 22.9558C124.682 22.7263 124.73 22.4203 124.787 22.0378C123.716 22.7358 122.765 23.2426 121.933 23.5582C121.11 23.8833 120.379 24.0458 119.738 24.0458C118.141 24.0458 116.975 23.6634 116.238 22.8984C115.512 22.1238 115.148 20.9716 115.148 19.4416C115.148 19.1643 115.153 18.8822 115.163 18.5954C115.172 18.2989 115.201 17.9977 115.249 17.6917C115.354 16.5634 115.445 15.5976 115.521 14.7944C115.598 13.9816 115.66 13.2931 115.708 12.7289C115.756 12.1648 115.794 11.7058 115.823 11.352C115.861 10.9886 115.889 10.6874 115.909 10.4484C115.937 10.2093 115.956 10.0133 115.966 9.86028C115.985 9.69772 116.004 9.53995 116.023 9.38695C116.062 9.08096 116.095 8.86581 116.124 8.7415C116.162 8.61719 116.272 8.53591 116.454 8.49766C116.903 8.4116 117.329 8.3351 117.73 8.26817C118.141 8.19167 118.543 8.11517 118.935 8.03868C119.337 7.95262 119.743 7.86177 120.154 7.76615C120.565 7.67053 121 7.55578 121.459 7.42191C121.479 7.42191 121.498 7.42191 121.517 7.42191C121.536 7.41235 121.555 7.40757 121.574 7.40757C121.689 7.40757 121.746 7.44582 121.746 7.52232V7.551C121.708 7.87612 121.675 8.18211 121.646 8.46898C121.617 8.75584 121.589 9.05227 121.56 9.35826C121.531 9.65469 121.498 9.97503 121.459 10.3193C121.431 10.6635 121.393 11.0651 121.345 11.5241C121.297 11.9735 121.24 12.4947 121.173 13.0875C121.106 13.6804 121.024 14.3689 120.929 15.153C120.871 15.7267 120.814 16.3004 120.757 16.8742C120.699 17.4383 120.671 17.9643 120.671 18.4519C120.671 18.7197 120.69 18.9683 120.728 19.1978C120.766 19.4177 120.833 19.609 120.929 19.7715C121.034 19.9245 121.168 20.0441 121.33 20.1301C121.493 20.2162 121.703 20.2592 121.961 20.2592C122.162 20.2592 122.435 20.2162 122.779 20.1301C123.123 20.0345 123.467 19.8767 123.812 19.6568C124.156 19.4273 124.457 19.1309 124.715 18.7675C124.983 18.3946 125.136 17.926 125.174 17.3619C125.241 16.4152 125.299 15.6263 125.346 14.9952C125.404 14.3545 125.452 13.819 125.49 13.3887C125.528 12.9489 125.562 12.5807 125.59 12.2843C125.619 11.9879 125.643 11.7058 125.662 11.438C125.691 11.1607 125.715 10.8691 125.734 10.5631C125.753 10.2476 125.772 9.8555 125.791 9.38695C125.82 9.0714 125.853 8.85625 125.892 8.7415C125.939 8.61719 126.049 8.53591 126.221 8.49766C127.092 8.32554 127.981 8.15342 128.889 7.9813C129.798 7.79962 130.687 7.57013 131.557 7.29282C131.634 7.29282 131.677 7.30717 131.686 7.33585C131.705 7.35498 131.715 7.38844 131.715 7.43626L130.367 21.5214Z" fill="#BAC4D1"/>
<path d="M135.502 23.3C135.31 23.3 135.105 23.2904 134.885 23.2713C134.674 23.2522 134.478 23.2187 134.297 23.1709C134.125 23.1135 133.976 23.0418 133.852 22.9558C133.737 22.8697 133.68 22.7549 133.68 22.6115C133.68 22.602 133.685 22.5876 133.694 22.5685C133.704 22.5494 133.709 22.5302 133.709 22.5111L138.772 12.1265C138.37 12.1265 137.921 12.1361 137.424 12.1552C136.926 12.1648 136.424 12.1791 135.918 12.1982C135.42 12.2078 134.942 12.2174 134.483 12.2269C134.034 12.2365 133.651 12.2413 133.336 12.2413C133.24 12.2413 133.168 12.2126 133.121 12.1552C133.073 12.0883 133.049 12.0166 133.049 11.9401V11.8827L134.498 8.42595C134.574 8.16777 134.717 8.00043 134.928 7.92393C135.138 7.84743 135.349 7.80918 135.559 7.80918C137.242 7.80918 138.891 7.83787 140.507 7.89524C142.133 7.95262 143.782 7.9813 145.456 7.9813C145.561 7.9813 145.666 8.01477 145.771 8.08171C145.886 8.14864 145.944 8.22992 145.944 8.32554C145.944 8.3351 145.934 8.36857 145.915 8.42595L141.368 18.3515C141.368 18.3707 141.392 18.385 141.44 18.3946C141.497 18.4041 141.564 18.4137 141.641 18.4233C141.727 18.4328 141.808 18.4376 141.884 18.4376C141.97 18.4376 142.042 18.4376 142.1 18.4376C142.702 18.4376 143.285 18.4233 143.849 18.3946C144.414 18.3659 144.983 18.3515 145.556 18.3515C145.661 18.3515 145.752 18.3754 145.829 18.4233C145.905 18.4711 145.944 18.5667 145.944 18.7101C145.944 18.7292 145.934 18.7388 145.915 18.7388L144.108 22.5111C144.022 22.6928 143.869 22.8362 143.649 22.9414C143.429 23.0466 143.161 23.1279 142.845 23.1852C142.53 23.2331 142.176 23.2665 141.784 23.2857C141.401 23.2952 141.005 23.3 140.593 23.3H135.502Z" fill="#BAC4D1"/>
<path d="M149.558 23.3C149.367 23.3 149.161 23.2904 148.941 23.2713C148.731 23.2522 148.535 23.2187 148.353 23.1709C148.181 23.1135 148.033 23.0418 147.909 22.9558C147.794 22.8697 147.736 22.7549 147.736 22.6115C147.736 22.602 147.741 22.5876 147.751 22.5685C147.76 22.5494 147.765 22.5302 147.765 22.5111L152.828 12.1265C152.427 12.1265 151.977 12.1361 151.48 12.1552C150.983 12.1648 150.481 12.1791 149.974 12.1982C149.477 12.2078 148.999 12.2174 148.54 12.2269C148.09 12.2365 147.708 12.2413 147.392 12.2413C147.297 12.2413 147.225 12.2126 147.177 12.1552C147.129 12.0883 147.105 12.0166 147.105 11.9401V11.8827L148.554 8.42595C148.631 8.16777 148.774 8.00043 148.984 7.92393C149.195 7.84743 149.405 7.80918 149.615 7.80918C151.298 7.80918 152.948 7.83787 154.564 7.89524C156.189 7.95262 157.839 7.9813 159.512 7.9813C159.618 7.9813 159.723 8.01477 159.828 8.08171C159.943 8.14864 160 8.22992 160 8.32554C160 8.3351 159.99 8.36857 159.971 8.42595L155.424 18.3515C155.424 18.3707 155.448 18.385 155.496 18.3946C155.554 18.4041 155.62 18.4137 155.697 18.4233C155.783 18.4328 155.864 18.4376 155.941 18.4376C156.027 18.4376 156.099 18.4376 156.156 18.4376C156.758 18.4376 157.342 18.4233 157.906 18.3946C158.47 18.3659 159.039 18.3515 159.613 18.3515C159.718 18.3515 159.809 18.3754 159.885 18.4233C159.962 18.4711 160 18.5667 160 18.7101C160 18.7292 159.99 18.7388 159.971 18.7388L158.164 22.5111C158.078 22.6928 157.925 22.8362 157.705 22.9414C157.485 23.0466 157.217 23.1279 156.902 23.1852C156.586 23.2331 156.232 23.2665 155.84 23.2857C155.458 23.2952 155.061 23.3 154.65 23.3H149.558Z" fill="#BAC4D1"/>
</g>
</svg>
