<svg width="160" height="34" viewBox="0 0 160 34" fill="none" xmlns="http://www.w3.org/2000/svg">
<g id="iMADE">
<path d="M0 6.42988V0.15625H9.24779V6.42988H0ZM0 33.848V9.3111H9.24779V33.848H0Z" fill="#BAC4D1"/>
<path d="M43.2652 33.848V22.3231C43.2652 20.8979 43.3116 19.4418 43.4046 17.9548C43.5285 16.4367 43.6524 15.1665 43.7763 14.1441C43.9003 13.1217 43.9777 12.4711 44.0087 12.1923H43.8228L37.921 33.848H29.8814L23.9331 12.2388H23.7472C23.7782 12.5176 23.8556 13.1682 23.9796 14.1906C24.1345 15.182 24.2739 16.4367 24.3978 17.9548C24.5217 19.4418 24.5837 20.8979 24.5837 22.3231V33.848H15.15V1.87569H29.6491L34.4821 20.3248H34.668L39.4545 1.87569H53.4424V33.848H43.2652Z" fill="#BAC4D1"/>
<path d="M81.1084 33.848L79.7607 29.3402H68.5612L67.2135 33.848H56.711L68.3753 1.87569H80.3184L91.9827 33.848H81.1084ZM70.6988 22.1837H77.6231L74.2771 10.7982H74.0912L70.6988 22.1837Z" fill="#BAC4D1"/>
<path d="M109.703 1.87569C120.887 1.87569 126.479 7.2044 126.479 17.8618C126.479 28.5192 120.887 33.848 109.703 33.848H95.8547V1.87569H109.703ZM106.125 26.1802H109.517C113.824 26.1802 115.977 23.8721 115.977 19.256V16.4677C115.977 11.8515 113.824 9.54346 109.517 9.54346H106.125V26.1802Z" fill="#BAC4D1"/>
<path d="M132.024 1.87569H159.675V9.54346H142.294V13.9582H157.165V21.3007H142.294V26.1802H160V33.848H132.024V1.87569Z" fill="#BAC4D1"/>
</g>
</svg>
