<svg width="160" height="34" viewBox="0 0 160 34" fill="none" xmlns="http://www.w3.org/2000/svg">
<g id="indiezone">
<path d="M8.34996 3.69026C8.34996 3.93584 8.2681 4.12686 8.10437 4.26329C7.94065 4.37244 7.79057 4.52252 7.65413 4.71354C7.38126 4.95912 7.13567 5.21835 6.91737 5.49123C6.72636 5.73682 6.49441 5.9824 6.22154 6.22799C6.11239 6.33714 5.96231 6.48722 5.7713 6.67823C5.58028 6.84196 5.37563 7.01933 5.15733 7.21034C4.96632 7.37406 4.76166 7.52414 4.54336 7.66058C4.35235 7.79702 4.18862 7.86524 4.05219 7.86524C3.83389 7.86524 3.54737 7.79702 3.19263 7.66058C2.86518 7.49686 2.57866 7.38771 2.33308 7.33313C2.14207 7.30584 1.9647 7.2922 1.80097 7.2922C1.66453 7.26491 1.5281 7.18305 1.39166 7.04661C0.900486 6.93746 0.58668 6.77374 0.450243 6.55544C0.313806 6.30985 0.163725 6.06427 0 5.81868C0 5.70953 0.0409312 5.64131 0.122794 5.61402C0.204656 5.58674 0.272875 5.53216 0.327449 5.4503C0.600324 5.09556 0.832267 4.80904 1.02328 4.59074C1.21429 4.34516 1.43259 4.09957 1.67818 3.85398C2.14207 3.44467 2.57866 3.02171 2.98798 2.58511C3.42458 2.14852 3.87482 1.7392 4.33871 1.35718C4.557 1.32989 4.72073 1.24803 4.82988 1.11159C4.93903 0.975155 5.10275 0.906937 5.32105 0.906937C5.53935 0.906937 5.71672 0.975155 5.85316 1.11159C6.01688 1.24803 6.15332 1.41175 6.26247 1.60277C6.39891 1.76649 6.5217 1.94386 6.63085 2.13487C6.76729 2.2986 6.91737 2.42139 7.08109 2.50325C7.27211 2.63969 7.53134 2.81706 7.85879 3.03536C8.18624 3.25366 8.34996 3.47196 8.34996 3.69026ZM2.74239 11.3035C2.9334 11.4126 3.06984 11.5627 3.1517 11.7537C3.26085 11.9174 3.41093 12.0402 3.60194 12.1221C3.76567 12.2039 3.94304 12.2449 4.13405 12.2449C4.32506 12.2449 4.48879 12.2722 4.62522 12.3267C4.73437 12.3813 4.81624 12.4495 4.87081 12.5314C4.92539 12.6133 4.97996 12.6951 5.03454 12.777C5.19826 12.9134 5.44385 13.0362 5.7713 13.1454C6.12603 13.2545 6.35798 13.3773 6.46713 13.5137C6.65814 13.7593 6.79458 14.0731 6.87644 14.4552C6.98559 14.8372 7.06745 15.2465 7.12203 15.6831C7.1766 16.0924 7.21753 16.5154 7.24482 16.952C7.27211 17.3613 7.31304 17.716 7.36761 18.0162C7.42219 18.6438 7.49041 19.2714 7.57227 19.899C7.65413 20.4993 7.69506 21.1133 7.69506 21.7409C7.69506 22.3685 7.66778 23.0098 7.6132 23.6647C7.55863 24.3196 7.53134 24.9608 7.53134 25.5884C7.53134 25.9159 7.51769 26.3252 7.49041 26.8164C7.49041 27.3076 7.38126 27.6896 7.16296 27.9624C7.13567 28.0716 7.12203 28.2626 7.12203 28.5355V29.8453C7.12203 30.009 7.13567 30.1727 7.16296 30.3365C7.19024 30.5002 7.20389 30.6776 7.20389 30.8686C7.20389 31.1687 7.12203 31.387 6.9583 31.5235C6.87644 31.4962 6.78093 31.4825 6.67178 31.4825C6.58992 31.4825 6.50806 31.4825 6.4262 31.4825C6.12603 31.4825 5.90773 31.5371 5.7713 31.6463C5.47113 31.619 5.18462 31.5917 4.91174 31.5644C4.63887 31.5371 4.35235 31.5235 4.05219 31.5235C3.5883 31.5235 3.08348 31.5917 2.53773 31.7281C2.42858 31.4552 2.37401 31.1687 2.37401 30.8686C2.4013 30.5684 2.34672 30.2955 2.21028 30.0499C2.183 29.9681 2.15571 29.8999 2.12842 29.8453C2.12842 29.7634 2.12842 29.6816 2.12842 29.5997C2.21028 29.2722 2.25122 29.0539 2.25122 28.9448C2.25122 28.8084 2.25122 28.6719 2.25122 28.5355C2.25122 28.1535 2.23757 27.7714 2.21028 27.3894C2.183 26.9801 2.19664 26.5844 2.25122 26.2024C2.25122 26.066 2.26486 25.9432 2.29215 25.834C2.34672 25.7249 2.37401 25.6021 2.37401 25.4656C2.37401 25.3292 2.34672 25.2337 2.29215 25.1791C2.23757 25.1246 2.21028 25.0563 2.21028 24.9745C2.21028 24.8926 2.21028 24.7562 2.21028 24.5652C2.23757 24.3741 2.2785 24.2514 2.33308 24.1968C2.33308 23.9785 2.33308 23.7738 2.33308 23.5828C2.36036 23.3645 2.37401 23.1599 2.37401 22.9688C2.37401 22.5322 2.36036 22.0956 2.33308 21.659C2.30579 21.2224 2.29215 20.7995 2.29215 20.3902C2.29215 20.1992 2.2785 20.0764 2.25122 20.0218C2.22393 19.9672 2.19664 19.9263 2.16935 19.899C2.14207 19.8717 2.10113 19.8581 2.04656 19.8581C1.99198 19.8308 1.95105 19.7762 1.92377 19.6943C2.03292 18.4937 1.99198 17.2931 1.80097 16.0924C1.60996 14.8918 1.51445 13.6775 1.51445 12.4495C1.51445 12.2585 1.54174 12.1221 1.59632 12.0402C1.65089 11.9311 1.71911 11.8492 1.80097 11.7946C1.88283 11.7401 1.95105 11.6855 2.00563 11.6309C2.08749 11.549 2.14207 11.4399 2.16935 11.3035C2.38765 11.358 2.57866 11.358 2.74239 11.3035Z" fill="#BAC4D1"/>
<path d="M25.9504 0.988799C26.387 0.934224 26.7144 0.975155 26.9327 1.11159C27.1783 1.22074 27.4239 1.28896 27.6695 1.31625C27.8059 1.34354 27.9424 1.35718 28.0788 1.35718C28.2425 1.32989 28.4062 1.31625 28.57 1.31625C28.9247 1.31625 29.1976 1.35718 29.3886 1.43904C29.6069 1.5209 29.8252 1.69827 30.0435 1.97115C30.0981 2.02572 30.1663 2.10758 30.2481 2.21673C30.3573 2.2986 30.4119 2.38046 30.4119 2.46232C30.4119 2.68062 30.3573 2.87163 30.2481 3.03536C30.139 3.19908 30.0844 3.43103 30.0844 3.73119C30.0844 4.19508 30.139 4.65896 30.2481 5.12285C30.3573 5.55945 30.4255 6.00969 30.4528 6.47358C30.5892 8.1654 30.6575 9.87087 30.6575 11.59C30.6847 13.2818 30.6984 14.96 30.6984 16.6245C30.6984 16.8428 30.6847 17.0475 30.6575 17.2385C30.6575 17.4022 30.6029 17.5523 30.4937 17.6887V18.2208C30.4664 18.9303 30.4801 19.6534 30.5347 20.3902C30.5892 21.0997 30.6165 21.8091 30.6165 22.5186C30.6165 23.1462 30.5756 23.7738 30.4937 24.4014C30.4392 25.029 30.4119 25.6703 30.4119 26.3252C30.4119 26.9255 30.4528 27.5122 30.5347 28.0852C30.6165 28.6583 30.6575 29.245 30.6575 29.8453C30.521 30.0909 30.4392 30.2819 30.4119 30.4183C30.3846 30.5548 30.33 30.6776 30.2481 30.7867C30.1663 30.8413 30.0708 30.8549 29.9616 30.8276C29.8798 30.8003 29.8115 30.8276 29.757 30.9095C29.6205 31.0732 29.525 31.2642 29.4705 31.4825C29.4159 31.7008 29.2794 31.8782 29.0611 32.0146C29.0066 32.3967 28.8565 32.6832 28.6109 32.8742C28.3926 33.0925 28.2289 33.3654 28.1197 33.6928C27.7923 33.7201 27.5603 33.7065 27.4239 33.6519C27.3147 33.5973 27.1919 33.5427 27.0555 33.4882C27.0282 33.0243 27.0282 32.6832 27.0555 32.4649C27.1101 32.2739 27.1374 32.0692 27.1374 31.8509C27.1374 31.578 27.0692 31.3734 26.9327 31.2369C26.7963 31.1005 26.7008 30.9231 26.6462 30.7048C26.346 30.5138 26.1414 30.391 26.0322 30.3365C25.9231 30.2546 25.8276 30.1591 25.7457 30.0499C25.582 29.8316 25.4456 29.5997 25.3364 29.3541C25.2273 29.1085 25.1045 28.8766 24.968 28.6583C24.586 28.0307 24.1903 27.3894 23.781 26.7345C23.399 26.0796 22.976 25.4384 22.5122 24.8107C22.4303 24.6743 22.3348 24.5515 22.2256 24.4424C22.1165 24.3332 22.021 24.2104 21.9391 24.074C21.4752 23.3372 21.0386 22.5868 20.6293 21.8228C20.22 21.0587 19.7425 20.3356 19.1967 19.6534C18.9784 19.3805 18.8147 19.0804 18.7056 18.7529C18.5964 18.3982 18.4327 18.098 18.2144 17.8524C18.1871 17.9889 18.1734 18.139 18.1734 18.3027C18.1734 18.4664 18.1734 18.6165 18.1734 18.7529C18.1734 19.6807 18.1871 20.6085 18.2144 21.5363C18.269 22.4367 18.2962 23.3509 18.2962 24.2786C18.2962 24.4697 18.269 24.647 18.2144 24.8107C18.1871 24.9472 18.1734 25.1109 18.1734 25.3019C18.1734 25.5748 18.1871 25.834 18.2144 26.0796C18.2417 26.3252 18.2553 26.5708 18.2553 26.8164C18.2553 27.1165 18.2417 27.4031 18.2144 27.6759C18.2144 27.9488 18.2007 28.2217 18.1734 28.4946C18.1189 28.8493 18.0507 29.1904 17.9688 29.5178C17.8869 29.818 17.846 30.1318 17.846 30.4593C17.846 30.6503 17.8596 30.8276 17.8869 30.9914C17.9415 31.1551 17.9688 31.3052 17.9688 31.4416C17.7778 31.7418 17.5322 31.8918 17.232 31.8918C16.9592 31.8918 16.7272 32.001 16.5362 32.2193C16.3725 32.192 16.236 32.2056 16.1269 32.2602C16.045 32.3148 15.9632 32.3421 15.8813 32.3421C15.7721 32.3421 15.6766 32.3284 15.5948 32.3012C15.5402 32.2739 15.472 32.2602 15.3901 32.2602C15.2537 32.2602 15.1173 32.3284 14.9808 32.4649C14.8444 32.6013 14.7079 32.6695 14.5715 32.6695C14.4896 32.6695 14.3396 32.615 14.1213 32.5058C13.9302 32.3967 13.7119 32.2602 13.4664 32.0965C13.2481 31.9601 13.0434 31.81 12.8524 31.6463C12.6614 31.5098 12.5659 31.4007 12.5659 31.3188C12.5386 31.1824 12.5249 30.9914 12.5249 30.7458C12.5249 30.4183 12.5386 30.1045 12.5659 29.8044C12.6204 29.4769 12.675 29.1495 12.7296 28.822C12.8115 27.8942 12.8524 26.9801 12.8524 26.0796C12.8524 25.1518 12.8524 24.2241 12.8524 23.2963C12.8524 22.9143 12.8524 22.5322 12.8524 22.1502C12.8797 21.7682 12.8933 21.3862 12.8933 21.0041C12.8933 20.1037 12.8524 19.2032 12.7705 18.3027C12.716 17.3749 12.6887 16.4608 12.6887 15.5603C12.6887 14.9327 12.716 14.3187 12.7705 13.7184C12.8251 13.0908 12.8524 12.4768 12.8524 11.8765C12.8524 11.4126 12.8387 10.9624 12.8115 10.5258C12.7842 10.0892 12.7705 9.63892 12.7705 9.17504C12.7432 8.87487 12.7432 8.56107 12.7705 8.23362C12.7978 7.87888 12.8115 7.55143 12.8115 7.25127C12.8115 6.89653 12.7569 6.56908 12.6477 6.26892C12.5659 5.94147 12.5249 5.64131 12.5249 5.36844C12.5249 5.20471 12.5522 5.05463 12.6068 4.91819C12.6887 4.75447 12.7296 4.59074 12.7296 4.42702C12.7296 4.20872 12.6887 3.99042 12.6068 3.77212C12.5522 3.55382 12.5249 3.33552 12.5249 3.11722C12.5249 2.89892 12.5522 2.69426 12.6068 2.50325C12.6614 2.31224 12.6887 2.10758 12.6887 1.88928C13.0707 1.69827 13.4118 1.60277 13.7119 1.60277C14.0121 1.60277 14.2304 1.71192 14.3668 1.93022C14.3668 2.42139 14.3941 2.80341 14.4487 3.07629C14.5033 3.32188 14.5442 3.58111 14.5715 3.85398C14.5715 4.01771 14.5579 4.20872 14.5306 4.42702C14.5306 4.64532 14.5442 4.86362 14.5715 5.08192C14.5988 5.27293 14.6534 5.43665 14.7352 5.57309C14.8444 5.70953 15.0217 5.77775 15.2673 5.77775C15.3219 5.91418 15.3901 6.03698 15.472 6.14613C15.5539 6.25528 15.6084 6.39172 15.6357 6.55544C15.7994 6.44629 15.8949 6.29621 15.9222 6.1052C15.9495 5.91418 15.9495 5.73682 15.9222 5.57309C16.0587 5.62767 16.1815 5.65495 16.2906 5.65495C16.3998 5.62767 16.5089 5.64131 16.6181 5.69589C16.6726 6.07791 16.7409 6.419 16.8227 6.71916C16.9046 6.99204 16.9319 7.31949 16.9046 7.70151C17.4503 8.11083 17.9142 8.6975 18.2962 9.46155C18.7056 10.1983 19.0876 10.8669 19.4423 11.4672C19.6333 11.7673 19.8516 12.0539 20.0972 12.3267C20.3701 12.5723 20.5747 12.8725 20.7112 13.2272C20.9295 13.3637 21.1068 13.541 21.2433 13.7593C21.3797 13.9776 21.5025 14.1959 21.6117 14.4142C22.1574 15.3693 22.7577 16.2971 23.4126 17.1975C24.0675 18.098 24.7497 18.9849 25.4592 19.8581C25.4865 19.6671 25.5001 19.4897 25.5001 19.326C25.5001 19.135 25.5001 18.9439 25.5001 18.7529L25.4592 15.0691C25.4592 14.8508 25.4456 14.6462 25.4183 14.4552C25.4183 14.2641 25.4046 14.0595 25.3773 13.8412C25.3228 13.1317 25.3091 12.4359 25.3364 11.7537C25.3637 11.0715 25.3637 10.3757 25.3364 9.66621C25.2818 8.92945 25.2409 8.17904 25.2136 7.41499C25.2136 6.65095 25.1863 5.8869 25.1317 5.12285C25.1045 4.65896 25.0772 4.19508 25.0499 3.73119C25.0226 3.2673 25.009 2.80341 25.009 2.33953C25.009 1.76649 25.0635 1.24803 25.1727 0.784143C25.2273 0.729568 25.2818 0.688637 25.3364 0.661349C25.4183 0.606774 25.5138 0.579487 25.6229 0.579487C25.7866 0.579487 25.8958 0.715924 25.9504 0.988799Z" fill="#BAC4D1"/>
<path d="M35.8557 32.0146C35.7466 31.9055 35.692 31.7554 35.692 31.5644C35.692 31.428 35.692 31.3188 35.692 31.2369C35.7193 31.1278 35.7466 31.005 35.7739 30.8686C35.9103 30.241 35.9785 29.6133 35.9785 28.9857C35.9785 28.3308 36.0058 27.6896 36.0604 27.062C36.0877 26.6799 36.1013 26.2979 36.1013 25.9159C36.1286 25.5339 36.1422 25.1518 36.1422 24.7698C36.1422 22.505 36.074 20.2537 35.9376 18.0162C35.8011 15.7513 35.7329 13.4728 35.7329 11.1807C35.7329 9.59799 35.7602 8.01532 35.8148 6.43265C35.8694 4.82269 35.9103 3.21273 35.9376 1.60277C36.1832 1.46633 36.4833 1.41175 36.8381 1.43904C37.1928 1.46633 37.4793 1.34354 37.6976 1.07066C37.8341 1.04337 37.9705 1.04337 38.1069 1.07066C38.2434 1.07066 38.3798 1.07066 38.5162 1.07066C38.8164 1.07066 39.1029 0.975155 39.3758 0.784143C39.6487 0.593131 39.9488 0.429406 40.2763 0.292969C40.44 0.347544 40.5492 0.374831 40.6037 0.374831C40.6856 0.347544 40.7675 0.3339 40.8493 0.3339C40.9312 0.3339 41.1086 0.429406 41.3814 0.620418C41.6543 0.81143 41.9545 1.02973 42.2819 1.27532C42.6094 1.5209 42.9095 1.75285 43.1824 1.97115C43.4826 2.18945 43.6736 2.32588 43.7554 2.38046C44.4376 2.89892 45.0379 3.47196 45.5564 4.09957C46.1022 4.69989 46.6343 5.31386 47.1527 5.94147C47.6439 6.56908 48.176 7.21034 48.749 7.86524C49.3221 8.49285 49.8815 9.07953 50.4272 9.62528C50.6182 9.84358 50.8092 10.0346 51.0003 10.1983C51.2186 10.362 51.4232 10.5531 51.6142 10.7714C51.6961 10.8805 51.7643 11.0033 51.8189 11.1397C51.9007 11.2489 51.9826 11.3717 52.0645 11.5081C52.2282 11.6991 52.4192 11.8629 52.6375 11.9993C52.8558 12.1357 53.0605 12.2994 53.2515 12.4905C53.3879 12.5996 53.5926 12.8179 53.8654 13.1454C54.1383 13.4728 54.2747 13.7184 54.2747 13.8821C54.2747 13.9913 54.2475 14.0868 54.1929 14.1686C54.1383 14.2505 54.0837 14.346 54.0292 14.4552C54.0019 14.537 53.9882 14.6598 53.9882 14.8235C53.9882 14.9873 53.9746 15.0964 53.9473 15.151C53.6744 15.3693 53.5243 15.5057 53.4971 15.5603C53.4698 15.6149 53.4288 15.6694 53.3743 15.724C53.2924 15.8332 53.1833 15.9287 53.0468 16.0105C52.9377 16.0651 52.8558 16.1606 52.8012 16.2971C52.7467 16.3789 52.7194 16.4608 52.7194 16.5426C52.7467 16.6245 52.733 16.72 52.6784 16.8292C52.542 17.1293 52.3237 17.4158 52.0235 17.6887C51.7234 17.9616 51.4641 18.2618 51.2458 18.5892C50.9457 19.0804 50.6455 19.5716 50.3454 20.0627C50.0452 20.5539 49.7041 21.0314 49.3221 21.4953C49.1584 21.7136 48.981 21.9319 48.79 22.1502C48.6262 22.3412 48.4625 22.5459 48.2988 22.7642C48.1624 22.9279 48.0396 23.1053 47.9304 23.2963C47.8213 23.46 47.6985 23.651 47.562 23.8693C47.2619 24.2514 46.9754 24.6334 46.7025 25.0154C46.4296 25.3701 46.1431 25.7385 45.8429 26.1205C45.5155 26.5844 45.1607 27.0483 44.7787 27.5122C44.3967 27.9488 44.0556 28.399 43.7554 28.8629C43.4553 29.3541 43.1415 29.8044 42.814 30.2137C42.4866 30.623 42.1318 31.0186 41.7498 31.4007C41.6407 31.4825 41.5042 31.6053 41.3405 31.769C41.1768 31.9328 41.013 32.0146 40.8493 32.0146C40.7402 32.0146 40.6447 31.9737 40.5628 31.8918C40.5082 31.81 40.4127 31.769 40.2763 31.769C40.249 31.769 40.1671 31.7827 40.0307 31.81C39.8943 31.8373 39.7305 31.8646 39.5395 31.8918L38.8028 31.9737C38.3662 32.192 38.0524 32.2875 37.8613 32.2602C37.6703 32.2602 37.4793 32.2739 37.2883 32.3012C37.1792 32.3284 37.0837 32.3694 37.0018 32.4239C36.9472 32.4785 36.879 32.5058 36.7971 32.5058C36.6061 32.5058 36.456 32.4103 36.3469 32.2193C36.2377 32.0556 36.074 31.9873 35.8557 32.0146ZM48.1351 14.3324C48.1351 14.1959 47.9986 14.0049 47.7258 13.7593C47.4802 13.5137 47.2892 13.3364 47.1527 13.2272C46.9617 13.0635 46.7298 12.9134 46.4569 12.777C46.2113 12.6133 46.0066 12.4359 45.8429 12.2449C45.7065 12.0812 45.5701 11.9174 45.4336 11.7537C45.3245 11.5627 45.2017 11.3853 45.0652 11.2216C44.5741 10.6758 44.0692 10.1301 43.5508 9.58435C43.0596 9.0386 42.623 8.43827 42.241 7.78338C41.9954 7.61965 41.7635 7.42864 41.5452 7.21034C41.3269 6.99204 41.0676 6.81467 40.7675 6.67823C40.7129 6.84196 40.6856 7.01933 40.6856 7.21034C40.7129 7.37406 40.7265 7.53779 40.7265 7.70151C40.7265 8.32912 40.6992 8.94309 40.6447 9.54342C40.5901 10.1437 40.5628 10.7441 40.5628 11.3444C40.5628 12.8179 40.5901 14.2778 40.6447 15.724C40.7265 17.143 40.7675 18.5756 40.7675 20.0218C40.7675 20.5675 40.7675 21.1133 40.7675 21.659C40.7947 22.2048 40.8493 22.7505 40.9312 23.2963C40.8766 23.46 40.8493 23.6101 40.8493 23.7465C40.8493 23.883 40.8766 24.0603 40.9312 24.2786C41.1495 24.1422 41.3269 23.9785 41.4633 23.7875C41.627 23.5692 41.7771 23.3645 41.9135 23.1735C42.3774 22.5732 42.8277 21.9729 43.2643 21.3725C43.7281 20.7449 44.192 20.1173 44.6559 19.4897C44.9561 19.0804 45.2562 18.6847 45.5564 18.3027C45.8839 17.8934 46.1977 17.4704 46.4978 17.0338C46.5797 16.9247 46.7025 16.7337 46.8662 16.4608C47.0572 16.1879 47.2346 15.915 47.3983 15.6422C47.5893 15.342 47.753 15.0691 47.8895 14.8235C48.0532 14.578 48.1351 14.4142 48.1351 14.3324Z" fill="#BAC4D1"/>
<path d="M63.034 3.69026C63.034 3.93584 62.9522 4.12686 62.7884 4.26329C62.6247 4.37244 62.4746 4.52252 62.3382 4.71354C62.0653 4.95912 61.8197 5.21835 61.6014 5.49123C61.4104 5.73682 61.1785 5.9824 60.9056 6.22799C60.7965 6.33714 60.6464 6.48722 60.4554 6.67823C60.2643 6.84196 60.0597 7.01933 59.8414 7.21034C59.6504 7.37406 59.4457 7.52414 59.2274 7.66058C59.0364 7.79702 58.8727 7.86524 58.7362 7.86524C58.5179 7.86524 58.2314 7.79702 57.8767 7.66058C57.5492 7.49686 57.2627 7.38771 57.0171 7.33313C56.8261 7.30584 56.6488 7.2922 56.485 7.2922C56.3486 7.26491 56.2122 7.18305 56.0757 7.04661C55.5845 6.93746 55.2707 6.77374 55.1343 6.55544C54.9979 6.30985 54.8478 6.06427 54.6841 5.81868C54.6841 5.70953 54.725 5.64131 54.8069 5.61402C54.8887 5.58674 54.9569 5.53216 55.0115 5.4503C55.2844 5.09556 55.5163 4.80904 55.7073 4.59074C55.8984 4.34516 56.1167 4.09957 56.3622 3.85398C56.8261 3.44467 57.2627 3.02171 57.672 2.58511C58.1086 2.14852 58.5589 1.7392 59.0228 1.35718C59.2411 1.32989 59.4048 1.24803 59.5139 1.11159C59.6231 0.975155 59.7868 0.906937 60.0051 0.906937C60.2234 0.906937 60.4008 0.975155 60.5372 1.11159C60.7009 1.24803 60.8374 1.41175 60.9465 1.60277C61.083 1.76649 61.2058 1.94386 61.3149 2.13487C61.4514 2.2986 61.6014 2.42139 61.7652 2.50325C61.9562 2.63969 62.2154 2.81706 62.5429 3.03536C62.8703 3.25366 63.034 3.47196 63.034 3.69026ZM57.4265 11.3035C57.6175 11.4126 57.7539 11.5627 57.8358 11.7537C57.9449 11.9174 58.095 12.0402 58.286 12.1221C58.4497 12.2039 58.6271 12.2449 58.8181 12.2449C59.0091 12.2449 59.1728 12.2722 59.3093 12.3267C59.4184 12.3813 59.5003 12.4495 59.5549 12.5314C59.6094 12.6133 59.664 12.6951 59.7186 12.777C59.8823 12.9134 60.1279 13.0362 60.4554 13.1454C60.8101 13.2545 61.042 13.3773 61.1512 13.5137C61.3422 13.7593 61.4786 14.0731 61.5605 14.4552C61.6697 14.8372 61.7515 15.2465 61.8061 15.6831C61.8607 16.0924 61.9016 16.5154 61.9289 16.952C61.9562 17.3613 61.9971 17.716 62.0517 18.0162C62.1063 18.6438 62.1745 19.2714 62.2563 19.899C62.3382 20.4993 62.3791 21.1133 62.3791 21.7409C62.3791 22.3685 62.3518 23.0098 62.2973 23.6647C62.2427 24.3196 62.2154 24.9608 62.2154 25.5884C62.2154 25.9159 62.2018 26.3252 62.1745 26.8164C62.1745 27.3076 62.0653 27.6896 61.847 27.9624C61.8197 28.0716 61.8061 28.2626 61.8061 28.5355V29.8453C61.8061 30.009 61.8197 30.1727 61.847 30.3365C61.8743 30.5002 61.888 30.6776 61.888 30.8686C61.888 31.1687 61.8061 31.387 61.6424 31.5235C61.5605 31.4962 61.465 31.4825 61.3558 31.4825C61.274 31.4825 61.1921 31.4825 61.1103 31.4825C60.8101 31.4825 60.5918 31.5371 60.4554 31.6463C60.1552 31.619 59.8687 31.5917 59.5958 31.5644C59.3229 31.5371 59.0364 31.5235 58.7362 31.5235C58.2724 31.5235 57.7675 31.5917 57.2218 31.7281C57.1126 31.4552 57.0581 31.1687 57.0581 30.8686C57.0854 30.5684 57.0308 30.2955 56.8943 30.0499C56.8671 29.9681 56.8398 29.8999 56.8125 29.8453C56.8125 29.7634 56.8125 29.6816 56.8125 29.5997C56.8943 29.2722 56.9353 29.0539 56.9353 28.9448C56.9353 28.8084 56.9353 28.6719 56.9353 28.5355C56.9353 28.1535 56.9216 27.7714 56.8943 27.3894C56.8671 26.9801 56.8807 26.5844 56.9353 26.2024C56.9353 26.066 56.9489 25.9432 56.9762 25.834C57.0308 25.7249 57.0581 25.6021 57.0581 25.4656C57.0581 25.3292 57.0308 25.2337 56.9762 25.1791C56.9216 25.1246 56.8943 25.0563 56.8943 24.9745C56.8943 24.8926 56.8943 24.7562 56.8943 24.5652C56.9216 24.3741 56.9626 24.2514 57.0171 24.1968C57.0171 23.9785 57.0171 23.7738 57.0171 23.5828C57.0444 23.3645 57.0581 23.1599 57.0581 22.9688C57.0581 22.5322 57.0444 22.0956 57.0171 21.659C56.9899 21.2224 56.9762 20.7995 56.9762 20.3902C56.9762 20.1992 56.9626 20.0764 56.9353 20.0218C56.908 19.9672 56.8807 19.9263 56.8534 19.899C56.8261 19.8717 56.7852 19.8581 56.7306 19.8581C56.676 19.8308 56.6351 19.7762 56.6078 19.6943C56.717 18.4937 56.676 17.2931 56.485 16.0924C56.294 14.8918 56.1985 13.6775 56.1985 12.4495C56.1985 12.2585 56.2258 12.1221 56.2804 12.0402C56.335 11.9311 56.4032 11.8492 56.485 11.7946C56.5669 11.7401 56.6351 11.6855 56.6897 11.6309C56.7716 11.549 56.8261 11.4399 56.8534 11.3035C57.0717 11.358 57.2627 11.358 57.4265 11.3035Z" fill="#BAC4D1"/>
<path d="M73.2259 20.7995C73.2805 20.9359 73.4715 21.2224 73.7989 21.659C74.1537 22.0956 74.5493 22.5732 74.9859 23.0916C75.4225 23.6101 75.8318 24.1149 76.2139 24.6061C76.6232 25.07 76.9097 25.4111 77.0734 25.6294C77.3736 26.0114 77.6601 26.3934 77.933 26.7754C78.2331 27.1302 78.506 27.5122 78.7516 27.9215L79.4884 29.1495C79.7067 29.4223 79.8977 29.6543 80.0614 29.8453C80.2524 30.0363 80.4025 30.2955 80.5116 30.623C80.5662 30.8413 80.5935 30.9914 80.5935 31.0732C80.5935 31.2642 80.5253 31.4007 80.3888 31.4825C80.1705 31.4825 80.0478 31.5098 80.0205 31.5644C80.0205 31.6463 79.9659 31.7145 79.8567 31.769C79.7476 31.8236 79.5702 31.8509 79.3246 31.8509C79.1063 31.8782 78.929 31.8918 78.7925 31.8918C78.5469 31.8918 78.2331 31.8782 77.8511 31.8509C77.4964 31.8509 77.2099 31.8918 76.9916 31.9737C76.937 32.001 76.8551 32.0419 76.746 32.0965C76.6368 32.1511 76.555 32.1784 76.5004 32.1784C76.2821 32.1784 76.1184 32.1374 76.0092 32.0556C75.9273 32.001 75.8046 31.9601 75.6408 31.9328C75.4225 31.6872 75.2315 31.4416 75.0678 31.196C74.9314 30.9231 74.7676 30.6503 74.5766 30.3774C74.3856 30.1864 74.1946 30.0227 74.0036 29.8862C73.8126 29.7225 73.6488 29.5451 73.5124 29.3541C73.1031 28.7538 72.6801 28.1671 72.2435 27.5941C71.8069 27.021 71.3567 26.4616 70.8928 25.9159C70.6745 25.6157 70.4426 25.3429 70.197 25.0973C69.9514 24.8517 69.7195 24.5788 69.5012 24.2786C69.2829 24.0058 69.0782 23.7192 68.8872 23.4191C68.6962 23.0916 68.5052 22.7778 68.3141 22.4777C68.1504 22.2321 67.9321 21.9183 67.6592 21.5363C67.3864 21.1269 67.0862 20.7313 66.7588 20.3492C66.4313 19.9399 66.1039 19.5579 65.7764 19.2032C65.449 18.8484 65.1761 18.5756 64.9578 18.3846C64.9305 18.2208 64.8623 18.098 64.7531 18.0162C64.644 17.907 64.5212 17.8115 64.3848 17.7297C64.3302 17.5932 64.2756 17.4704 64.221 17.3613C64.1392 17.2248 64.0982 17.0884 64.0982 16.952C64.0982 16.7609 64.1392 16.5836 64.221 16.4199C64.2756 16.3107 64.3165 16.2152 64.3438 16.1333C64.3438 16.0242 64.3711 15.915 64.4257 15.8059C64.5621 15.5057 64.7395 15.2192 64.9578 14.9463C65.2034 14.6462 65.3944 14.3324 65.5308 14.0049C65.5854 13.9231 65.6127 13.8412 65.6127 13.7593C65.6127 13.6502 65.64 13.5547 65.6945 13.4728C65.7491 13.2545 65.8583 13.0771 66.022 12.9407C66.213 12.777 66.3631 12.5996 66.4722 12.4086C66.6087 12.1903 66.7315 11.972 66.8406 11.7537C66.9771 11.5081 67.1135 11.2489 67.2499 10.976C67.6592 10.2938 68.0822 9.63892 68.5188 9.01131C68.9827 8.35641 69.4466 7.70151 69.9105 7.04661C70.2652 6.50086 70.6063 5.9824 70.9337 5.49123C71.2885 4.97277 71.6432 4.45431 71.998 3.93584C72.189 3.69026 72.3936 3.40374 72.6119 3.07629C72.8302 2.74884 73.0622 2.42139 73.3077 2.09394C73.5806 1.76649 73.8535 1.46633 74.1264 1.19345C74.3992 0.92058 74.6721 0.702281 74.945 0.538556C75.3543 0.511268 75.6272 0.606774 75.7636 0.825074C75.9001 1.01609 76.1047 1.11159 76.3776 1.11159C76.7323 1.19345 76.9643 1.3026 77.0734 1.43904C77.1826 1.57548 77.3054 1.71192 77.4418 1.84835C77.8238 1.84835 78.124 1.91657 78.3423 2.05301C78.5879 2.18945 78.8198 2.3941 79.0381 2.66698C78.9563 2.96714 78.8335 3.24001 78.6697 3.4856C78.506 3.7039 78.3559 3.93584 78.2195 4.18143C78.0012 4.29058 77.8375 4.44066 77.7283 4.63167C77.6465 4.82269 77.51 4.97277 77.319 5.08192C77.0461 5.5458 76.7596 5.99605 76.4594 6.43265C76.1593 6.84196 75.8591 7.25127 75.559 7.66058C75.3952 7.90617 75.2179 8.12447 75.0269 8.31548C74.8631 8.50649 74.7131 8.71115 74.5766 8.92945C74.522 9.01131 74.4675 9.10682 74.4129 9.21597C74.3856 9.29783 74.3447 9.37969 74.2901 9.46155C73.9626 9.98002 73.6079 10.4712 73.2259 10.9351C72.8439 11.3717 72.4891 11.8629 72.1617 12.4086C72.0525 12.5996 71.957 12.8043 71.8752 13.0226C71.8206 13.2136 71.7387 13.4046 71.6296 13.5956C71.5204 13.7593 71.3567 13.9776 71.1384 14.2505C70.9474 14.5234 70.7564 14.8235 70.5654 15.151C70.3744 15.4512 70.197 15.7513 70.0333 16.0515C69.8968 16.3243 69.8286 16.5563 69.8286 16.7473C69.8559 16.8837 70.0196 17.1566 70.3198 17.5659C70.6472 17.948 71.002 18.3709 71.384 18.8348C71.7933 19.2714 72.1753 19.6943 72.5301 20.1037C72.8848 20.4857 73.1167 20.7176 73.2259 20.7995ZM75.9273 13.35C76.1184 13.7593 76.323 14.1141 76.5413 14.4142C76.6232 14.5234 76.7187 14.6189 76.8278 14.7007C76.937 14.7826 77.0188 14.8918 77.0734 15.0282C77.128 15.0828 77.1826 15.2056 77.2371 15.3966C77.2917 15.5603 77.3463 15.6831 77.4009 15.765C77.4827 15.9833 77.6465 16.2288 77.892 16.5017C78.1376 16.7746 78.2604 17.0202 78.2604 17.2385C78.2604 17.3749 78.2331 17.525 78.1786 17.6887C78.124 17.8524 78.0831 18.0025 78.0558 18.139C78.0285 18.3027 78.0148 18.4801 78.0148 18.6711C78.0148 18.8348 77.9603 18.9849 77.8511 19.1213C77.7147 19.2578 77.5646 19.3396 77.4009 19.3669C77.2371 19.3942 77.0871 19.4624 76.9506 19.5716C76.896 19.6261 76.8142 19.7216 76.705 19.8581C76.5959 19.9945 76.4867 20.1446 76.3776 20.3083C76.2684 20.472 76.1593 20.6358 76.0501 20.7995C75.9683 20.9359 75.9273 21.0451 75.9273 21.1269C75.5999 21.1542 75.3816 21.1679 75.2724 21.1679C75.1906 21.1406 75.0951 21.1406 74.9859 21.1679C74.8495 21.0314 74.6994 20.9223 74.5357 20.8404C74.3992 20.7313 74.2219 20.6358 74.0036 20.5539C73.949 20.3356 73.8262 20.09 73.6352 19.8171C73.4442 19.517 73.2805 19.2714 73.144 19.0804L72.8575 18.712C72.4482 18.139 72.0662 17.5932 71.7114 17.0748C71.384 16.529 71.1384 15.9287 70.9747 15.2738C71.4931 14.8918 71.8888 14.6052 72.1617 14.4142C72.4618 14.2232 72.7756 14.0458 73.1031 13.8821C73.4305 13.7184 73.7443 13.5683 74.0445 13.4319C74.372 13.2682 74.6721 13.0771 74.945 12.8588C75.1633 12.8588 75.3134 12.8725 75.3952 12.8998C75.4771 12.9271 75.5317 12.9543 75.559 12.9816C75.5863 13.0089 75.6135 13.0635 75.6408 13.1454C75.6954 13.1999 75.7909 13.2682 75.9273 13.35Z" fill="#BAC4D1"/>
<path d="M95.8199 0.292969C95.8472 0.374831 95.97 0.470337 96.1883 0.579487C96.4339 0.688637 96.584 0.743212 96.6385 0.743212C97.0205 0.688637 97.2388 0.702281 97.2934 0.784143C97.3753 0.838718 97.4571 0.906937 97.539 0.988799C97.6482 0.934224 97.73 0.879649 97.7846 0.825074C97.8665 0.743212 97.9756 0.702281 98.112 0.702281C98.2485 0.784143 98.3303 0.906937 98.3576 1.07066C98.4122 1.2071 98.4804 1.34354 98.5623 1.47997C98.535 1.83471 98.535 2.06665 98.5623 2.1758C98.5896 2.25767 98.6032 2.35317 98.6032 2.46232C98.6032 2.87163 98.4804 3.32188 98.2348 3.81305C97.9893 4.27694 97.8119 4.71354 97.7027 5.12285C97.5663 5.25929 97.4708 5.40937 97.4162 5.57309C97.3889 5.73682 97.3207 5.8869 97.2116 6.02333C97.1297 6.29621 97.0069 6.5418 96.8432 6.7601C96.6795 6.95111 96.5703 7.18305 96.5157 7.45593C96.4884 7.48321 96.4202 7.57872 96.3111 7.74244C96.2292 7.90617 96.1337 8.08354 96.0246 8.27455C95.9154 8.46556 95.8063 8.65657 95.6971 8.84759C95.6152 9.0386 95.5607 9.16139 95.5334 9.21597C95.4515 9.3524 95.3833 9.48884 95.3287 9.62528C95.3014 9.73443 95.2469 9.84358 95.165 9.95273C95.1104 10.1165 95.0149 10.3211 94.8785 10.5667C94.7693 10.785 94.6329 11.0169 94.4692 11.2625C94.3327 11.5081 94.2099 11.7537 94.1008 11.9993C93.9916 12.2176 93.9371 12.3813 93.9371 12.4905C93.7461 12.7088 93.6369 12.9543 93.6096 13.2272C92.8729 14.6189 92.218 16.0515 91.6449 17.525C91.0719 18.9712 90.4579 20.4038 89.803 21.8228C89.7484 22.0684 89.7075 22.2184 89.6802 22.273C89.6802 22.3276 89.6529 22.3685 89.5984 22.3958C89.5165 22.5868 89.421 22.7778 89.3118 22.9688C89.2027 23.1326 89.1208 23.3099 89.0663 23.5009C88.9571 23.8011 88.8616 24.0876 88.7797 24.3605C88.7252 24.6061 88.6024 24.8653 88.4114 25.1382C88.3841 25.3019 88.3295 25.4656 88.2476 25.6294C88.1658 25.7658 88.1385 25.9159 88.1658 26.0796C88.2476 26.1615 88.3704 26.2161 88.5341 26.2433C88.7252 26.2433 88.8752 26.2433 88.9844 26.2433C89.1481 26.2433 89.3118 26.2433 89.4756 26.2433C89.6393 26.2161 89.803 26.2024 89.9667 26.2024C90.1305 26.2024 90.2805 26.2161 90.417 26.2433C90.5534 26.2433 90.6899 26.2433 90.8263 26.2433H91.8496C91.9587 26.2433 92.0542 26.257 92.1361 26.2843C92.2452 26.2843 92.3408 26.2843 92.4226 26.2843C92.7228 26.2843 93.0366 26.2706 93.364 26.2433C93.7188 26.2161 94.0599 26.2024 94.3873 26.2024C94.5783 26.2024 94.783 26.2024 95.0013 26.2024C95.2196 26.1751 95.4379 26.1888 95.6562 26.2433C95.738 26.2706 95.7926 26.3116 95.8199 26.3661C95.8745 26.4207 95.97 26.4207 96.1064 26.3661C96.352 26.6117 96.5021 26.7618 96.5567 26.8164C96.6112 26.871 96.6658 26.9255 96.7204 26.9801C96.7204 27.0893 96.7204 27.1848 96.7204 27.2666C96.7477 27.3212 96.7613 27.3894 96.7613 27.4713C96.7613 27.7714 96.7886 27.9761 96.8432 28.0852C96.6795 28.3308 96.6249 28.5082 96.6795 28.6173L96.4748 29.0676C96.4748 29.204 96.4475 29.3541 96.3929 29.5178C96.3384 29.6543 96.3384 29.7907 96.3929 29.9271C96.2565 30.1454 96.161 30.391 96.1064 30.6639C96.0791 30.9095 95.9973 31.1414 95.8608 31.3597C95.6425 31.4416 95.4242 31.4825 95.2059 31.4825C94.9876 31.4552 94.7693 31.4689 94.551 31.5235C94.4146 31.4689 94.2236 31.4416 93.978 31.4416C93.7597 31.4416 93.5414 31.4552 93.3231 31.4825C93.1321 31.5098 92.9274 31.5235 92.7091 31.5235C92.6273 31.5235 92.5454 31.5235 92.4635 31.5235C92.3817 31.4962 92.2998 31.4825 92.218 31.4825C91.9178 31.5371 91.7541 31.5507 91.7268 31.5235C91.7268 31.4962 91.6995 31.4825 91.6449 31.4825C91.3448 31.4825 91.0446 31.4962 90.7444 31.5235C90.4443 31.5235 90.1441 31.5235 89.8439 31.5235C89.7348 31.5235 89.6393 31.5371 89.5574 31.5644C89.4756 31.5917 89.3937 31.6053 89.3118 31.6053C89.23 31.6053 89.1481 31.5917 89.0663 31.5644C88.9844 31.5371 88.9025 31.5235 88.8207 31.5235C88.6842 31.5235 88.5341 31.5371 88.3704 31.5644C88.2067 31.5917 88.043 31.6053 87.8792 31.6053C87.7974 31.6053 87.7155 31.5917 87.6337 31.5644C87.5518 31.5644 87.4699 31.5644 87.3881 31.5644C87.2516 31.5644 87.1152 31.5917 86.9788 31.6463C86.8423 31.7008 86.6922 31.7008 86.5285 31.6463L85.9555 31.7281C85.5189 31.7281 85.0823 31.7554 84.6457 31.81C84.2364 31.8646 83.8134 31.8918 83.3768 31.8918C83.1312 31.8918 82.9675 31.8782 82.8857 31.8509C82.7492 31.7418 82.5855 31.6735 82.3945 31.6463C82.2035 31.619 82.0261 31.5644 81.8624 31.4825C81.8351 31.2642 81.7396 31.1005 81.5759 30.9914C81.4121 30.8822 81.262 30.7594 81.1256 30.623C81.1529 30.2955 81.1256 30.0909 81.0437 30.009C81.071 29.5724 80.9892 29.2859 80.7982 29.1495C80.8254 28.9039 80.921 28.6719 81.0847 28.4536C81.2484 28.2353 81.3439 28.0034 81.3712 27.7578C81.5895 27.5395 81.7259 27.3758 81.7805 27.2666C81.8351 27.1575 81.8624 27.0347 81.8624 26.8982C82.0261 26.7072 82.1762 26.4753 82.3126 26.2024C82.4763 25.9022 82.6264 25.5884 82.7629 25.261C82.8993 24.9335 83.0221 24.6197 83.1312 24.3196C83.2404 23.9921 83.3359 23.7056 83.4178 23.46C83.6361 23.1599 83.7998 22.8461 83.9089 22.5186C84.0181 22.1912 84.1409 21.8637 84.2773 21.5363C84.4956 21.1542 84.632 20.8814 84.6866 20.7176C84.7685 20.5266 84.8776 20.3629 85.0141 20.2265C85.0414 20.1173 85.1096 19.9126 85.2187 19.6125C85.3552 19.285 85.4916 18.9439 85.628 18.5892C85.7645 18.2345 85.9009 17.9207 86.0373 17.6478C86.2011 17.3476 86.3102 17.1566 86.3648 17.0748C86.3921 16.9383 86.4467 16.8019 86.5285 16.6654C86.6104 16.529 86.6513 16.3926 86.6513 16.2561C86.9242 15.9014 87.1425 15.4648 87.3062 14.9463C87.4699 14.4279 87.6473 13.9776 87.8383 13.5956C88.0293 13.1863 88.234 12.7906 88.4523 12.4086C88.6706 11.9993 88.8889 11.59 89.1072 11.1807C89.9531 9.54342 90.799 7.89253 91.6449 6.22799C91.5903 6.09155 91.4676 6.02333 91.2765 6.02333C91.1128 6.02333 90.9764 5.9824 90.8672 5.90054C90.6489 5.95512 90.4443 5.96876 90.2533 5.94147C90.0622 5.91418 89.8576 5.90054 89.6393 5.90054C89.1208 5.79139 88.6842 5.75046 88.3295 5.77775C88.002 5.77775 87.6746 5.77775 87.3471 5.77775C87.1834 5.77775 87.0061 5.7641 86.815 5.73682C86.6513 5.70953 86.4876 5.69589 86.3239 5.69589C85.9146 5.69589 85.4916 5.72317 85.055 5.77775C84.6457 5.83232 84.25 5.90054 83.868 5.9824C83.6224 5.92783 83.3632 5.90054 83.0903 5.90054C82.8447 5.90054 82.6128 5.87325 82.3945 5.81868C82.2853 5.40937 82.258 5.17742 82.3126 5.12285C82.258 5.04099 82.1898 4.97277 82.108 4.91819C82.0534 4.83633 81.9988 4.75447 81.9442 4.67261C81.9715 4.42702 81.9442 4.27694 81.8624 4.22236C81.8078 4.1405 81.7532 4.03135 81.6986 3.89491C81.6986 3.7039 81.685 3.52653 81.6577 3.36281C81.6577 3.1718 81.685 2.98078 81.7396 2.78977C81.685 2.68062 81.6168 2.59876 81.5349 2.54418C81.4531 2.46232 81.3848 2.38046 81.3303 2.2986C81.3576 2.16216 81.3576 2.05301 81.3303 1.97115C81.3303 1.862 81.3439 1.75285 81.3712 1.6437C81.5349 1.50726 81.7123 1.41175 81.9033 1.35718C82.0943 1.27532 82.2444 1.15252 82.3535 0.988799C82.7083 0.879649 83.063 0.81143 83.4178 0.784143C83.7998 0.756855 84.1682 0.743212 84.5229 0.743212C84.9049 0.743212 85.2597 0.756855 85.5871 0.784143C85.9418 0.784143 86.2829 0.797787 86.6104 0.825074C86.856 0.825074 87.0743 0.866005 87.2653 0.947868C87.4836 1.00244 87.7019 1.04337 87.9202 1.07066C88.0566 1.09795 88.1931 1.11159 88.3295 1.11159C88.4659 1.0843 88.6024 1.07066 88.7388 1.07066C89.2027 1.07066 89.6666 1.0843 90.1305 1.11159C90.6216 1.11159 91.0992 1.11159 91.5631 1.11159C91.9451 1.11159 92.2998 1.11159 92.6273 1.11159C92.9547 1.11159 93.2822 1.0843 93.6096 1.02973C93.7188 0.92058 93.8006 0.81143 93.8552 0.702281C93.9098 0.593131 93.9644 0.483981 94.0189 0.374831C94.2645 0.374831 94.4282 0.388475 94.5101 0.415762C94.592 0.415762 94.6602 0.415762 94.7148 0.415762L95.2059 0.620418C95.3151 0.620418 95.4379 0.606774 95.5743 0.579487C95.7108 0.524912 95.7926 0.429406 95.8199 0.292969Z" fill="#BAC4D1"/>
<path d="M120.788 15.2738C120.733 15.3829 120.679 15.4921 120.624 15.6012C120.57 15.6831 120.529 15.7786 120.501 15.8877C120.611 15.9969 120.706 16.1197 120.788 16.2561C120.897 16.3653 120.952 16.4881 120.952 16.6245C120.952 16.7337 120.924 16.8428 120.87 16.952C120.842 17.0338 120.842 17.1157 120.87 17.1975C120.761 17.3886 120.638 17.5659 120.501 17.7297C120.392 17.8934 120.31 18.0707 120.256 18.2618C120.147 18.3709 120.051 18.4801 119.969 18.5892C119.915 18.6984 119.86 18.8075 119.806 18.9167C119.669 18.9712 119.574 19.0667 119.519 19.2032C119.492 19.3123 119.424 19.4078 119.314 19.4897C119.287 19.5988 119.151 19.8581 118.905 20.2674C118.66 20.6767 118.387 21.1133 118.086 21.5772C117.786 22.0411 117.5 22.4913 117.227 22.9279C116.954 23.3645 116.763 23.651 116.654 23.7875C116.599 23.9239 116.531 24.0331 116.449 24.1149C116.395 24.1968 116.326 24.2923 116.245 24.4014C116.19 24.4833 116.149 24.5788 116.122 24.688C116.094 24.7698 116.054 24.838 115.999 24.8926C115.944 25.0018 115.876 25.0973 115.794 25.1791C115.74 25.261 115.685 25.3701 115.631 25.5066C115.358 25.8613 115.085 26.2843 114.812 26.7754C114.539 27.2666 114.28 27.7032 114.034 28.0852C113.898 28.3035 113.761 28.5218 113.625 28.7401C113.516 28.9584 113.393 29.1767 113.257 29.395C113.12 29.6133 112.984 29.818 112.847 30.009C112.711 30.2 112.574 30.4047 112.438 30.623C112.22 30.7867 112.029 30.9914 111.865 31.2369C111.701 31.4552 111.51 31.6463 111.292 31.81C110.937 31.81 110.719 31.6463 110.637 31.3188C110.282 31.2369 110.105 31.2369 110.105 31.3188C110.105 31.4007 110.105 31.4689 110.105 31.5235C109.996 31.578 109.914 31.6599 109.859 31.769C109.832 31.8782 109.764 31.9601 109.655 32.0146C109.436 31.9601 109.245 31.8646 109.082 31.7281C108.945 31.619 108.741 31.578 108.468 31.6053C108.358 31.4416 108.236 31.3052 108.099 31.196C107.963 31.0596 107.84 30.9231 107.731 30.7867C107.676 30.623 107.594 30.4865 107.485 30.3774C107.403 30.2682 107.322 30.1591 107.24 30.0499C107.158 29.9135 107.076 29.7907 106.994 29.6816C106.912 29.5724 106.83 29.4633 106.749 29.3541C106.558 29.1085 106.367 28.8766 106.175 28.6583C106.012 28.4127 105.862 28.1671 105.725 27.9215C105.507 27.5941 105.289 27.2666 105.07 26.9392C104.879 26.5844 104.675 26.2433 104.456 25.9159C104.347 25.7522 104.238 25.5884 104.129 25.4247C104.02 25.261 103.924 25.0973 103.842 24.9335C103.788 24.7971 103.706 24.6334 103.597 24.4424C103.515 24.2514 103.406 24.1286 103.269 24.074C103.215 23.8557 103.119 23.692 102.983 23.5828C102.846 23.4737 102.71 23.3372 102.574 23.1735C102.383 22.9552 102.205 22.7233 102.041 22.4777C101.878 22.2048 101.714 21.9319 101.55 21.659C101.005 20.895 100.486 20.1446 99.9949 19.4078C99.531 18.6711 99.0671 17.907 98.6032 17.1157C98.7397 16.6791 98.8079 16.3516 98.8079 16.1333C98.8079 15.915 98.8761 15.7377 99.0125 15.6012C99.0125 15.4921 99.0398 15.3284 99.0944 15.1101C99.4491 14.5097 99.7902 13.964 100.118 13.4728C100.418 13.0089 100.622 12.6269 100.732 12.3267C100.868 12.0266 101.005 11.7128 101.141 11.3853C101.277 11.3035 101.387 11.208 101.468 11.0988C101.55 10.9624 101.659 10.8396 101.796 10.7304C101.85 10.4303 101.973 10.1847 102.164 9.99366C102.355 9.77536 102.478 9.51613 102.533 9.21597C102.778 9.02495 102.915 8.80665 102.942 8.56107C103.297 8.31548 103.515 7.98803 103.597 7.57872C103.815 7.36042 103.992 7.11483 104.129 6.84196C104.293 6.56908 104.443 6.28257 104.579 5.9824C104.907 5.70953 105.166 5.35479 105.357 4.91819C105.521 4.80904 105.643 4.65896 105.725 4.46795C105.807 4.27694 105.916 4.11321 106.053 3.97678C106.271 3.62204 106.435 3.33552 106.544 3.11722C106.68 2.87163 106.817 2.62605 106.953 2.38046C107.144 2.38046 107.267 2.31224 107.322 2.1758C107.376 2.03937 107.485 1.98479 107.649 2.01208C107.649 1.76649 107.717 1.54819 107.854 1.35718C107.908 1.32989 107.99 1.3026 108.099 1.27532C108.208 1.22074 108.263 1.16617 108.263 1.11159C108.208 0.784143 108.222 0.593131 108.304 0.538556C108.386 0.483981 108.454 0.429406 108.509 0.374831C108.809 0.429406 109.013 0.470337 109.123 0.497625C109.232 0.524912 109.409 0.620418 109.655 0.784143C109.928 0.784143 110.119 0.838718 110.228 0.947868C110.337 1.05702 110.46 1.13888 110.596 1.19345C110.705 1.3026 110.787 1.41175 110.842 1.5209C110.924 1.63005 111.033 1.71192 111.169 1.76649C111.387 2.06665 111.619 2.3941 111.865 2.74884C112.111 3.10358 112.342 3.43103 112.561 3.73119C112.861 4.1405 113.161 4.53617 113.461 4.91819C113.789 5.27293 114.089 5.6686 114.362 6.1052C114.444 6.24163 114.594 6.48722 114.812 6.84196C115.03 7.16941 115.276 7.52414 115.549 7.90617C115.822 8.28819 116.067 8.64293 116.285 8.97038C116.504 9.27054 116.654 9.44791 116.736 9.50249C116.818 9.63892 116.995 9.89815 117.268 10.2802C117.541 10.6622 117.827 11.0715 118.127 11.5081C118.455 11.9174 118.769 12.3131 119.069 12.6951C119.369 13.0771 119.574 13.3227 119.683 13.4319C119.983 13.8412 120.201 14.1823 120.338 14.4552C120.501 14.7007 120.651 14.9736 120.788 15.2738ZM111.415 22.9688C111.715 22.5595 111.947 22.1912 112.111 21.8637C112.274 21.5363 112.438 21.2088 112.602 20.8814C112.875 20.5539 113.038 20.322 113.093 20.1855C113.147 20.0491 113.216 19.9126 113.298 19.7762C113.516 19.4488 113.734 19.1213 113.952 18.7939C114.198 18.4664 114.389 18.1117 114.525 17.7297C114.689 17.6205 114.812 17.4841 114.894 17.3203C114.976 17.1566 115.098 17.0065 115.262 16.8701C115.098 16.2971 114.907 15.8605 114.689 15.5603C114.471 15.2329 114.253 14.919 114.034 14.6189C113.952 14.4824 113.871 14.346 113.789 14.2096C113.707 14.0731 113.625 13.9367 113.543 13.8003C113.434 13.7184 113.338 13.6365 113.257 13.5547C113.202 13.4728 113.134 13.3909 113.052 13.3091C112.997 13.1726 112.915 12.9953 112.806 12.777C112.697 12.6405 112.588 12.5177 112.479 12.4086C112.37 12.2994 112.274 12.163 112.192 11.9993C112.083 11.8901 111.947 11.7401 111.783 11.549C111.619 11.358 111.442 11.1534 111.251 10.9351C111.087 10.6895 110.937 10.4712 110.801 10.2802C110.664 10.0619 110.555 9.88451 110.473 9.74807C110.419 9.61164 110.364 9.50249 110.31 9.42062C110.282 9.31147 110.241 9.20232 110.187 9.09317C110.05 8.90216 109.914 8.73844 109.777 8.602C109.641 8.43827 109.505 8.26091 109.368 8.06989C109.286 8.12447 109.204 8.1654 109.123 8.19269C109.068 8.19269 109.013 8.21997 108.959 8.27455C108.768 8.62929 108.549 8.95674 108.304 9.2569C108.086 9.55706 107.867 9.88451 107.649 10.2392C107.458 10.5667 107.267 10.9078 107.076 11.2625C106.885 11.59 106.694 11.9174 106.503 12.2449C106.367 12.4359 106.23 12.6269 106.094 12.8179C105.984 12.9816 105.862 13.1726 105.725 13.3909C105.589 13.582 105.466 13.7866 105.357 14.0049C105.275 14.1959 105.166 14.3869 105.029 14.578C104.811 14.8508 104.634 15.0964 104.497 15.3147C104.361 15.533 104.224 15.7922 104.088 16.0924C104.17 16.2561 104.293 16.4881 104.456 16.7882C104.647 17.0611 104.838 17.3476 105.029 17.6478C105.22 17.9207 105.384 18.1799 105.521 18.4255C105.684 18.6711 105.78 18.8348 105.807 18.9167C106.025 19.1077 106.203 19.326 106.339 19.5716C106.476 19.7899 106.653 20.0082 106.871 20.2265C106.98 20.4448 107.103 20.6358 107.24 20.7995C107.376 20.9632 107.513 21.1406 107.649 21.3316C107.785 21.5226 107.963 21.8091 108.181 22.1912C108.399 22.5459 108.618 22.9143 108.836 23.2963C109.054 23.6783 109.273 24.0331 109.491 24.3605C109.709 24.688 109.887 24.8926 110.023 24.9745C110.296 24.6743 110.514 24.3469 110.678 23.9921C110.869 23.6101 111.115 23.269 111.415 22.9688Z" fill="#BAC4D1"/>
<path d="M136.874 0.988799C137.31 0.934224 137.638 0.975155 137.856 1.11159C138.102 1.22074 138.347 1.28896 138.593 1.31625C138.729 1.34354 138.866 1.35718 139.002 1.35718C139.166 1.32989 139.33 1.31625 139.493 1.31625C139.848 1.31625 140.121 1.35718 140.312 1.43904C140.53 1.5209 140.749 1.69827 140.967 1.97115C141.022 2.02572 141.09 2.10758 141.172 2.21673C141.281 2.2986 141.335 2.38046 141.335 2.46232C141.335 2.68062 141.281 2.87163 141.172 3.03536C141.062 3.19908 141.008 3.43103 141.008 3.73119C141.008 4.19508 141.062 4.65896 141.172 5.12285C141.281 5.55945 141.349 6.00969 141.376 6.47358C141.513 8.1654 141.581 9.87087 141.581 11.59C141.608 13.2818 141.622 14.96 141.622 16.6245C141.622 16.8428 141.608 17.0475 141.581 17.2385C141.581 17.4022 141.526 17.5523 141.417 17.6887V18.2208C141.39 18.9303 141.404 19.6534 141.458 20.3902C141.513 21.0997 141.54 21.8091 141.54 22.5186C141.54 23.1462 141.499 23.7738 141.417 24.4014C141.363 25.029 141.335 25.6703 141.335 26.3252C141.335 26.9255 141.376 27.5122 141.458 28.0852C141.54 28.6583 141.581 29.245 141.581 29.8453C141.445 30.0909 141.363 30.2819 141.335 30.4183C141.308 30.5548 141.254 30.6776 141.172 30.7867C141.09 30.8413 140.994 30.8549 140.885 30.8276C140.803 30.8003 140.735 30.8276 140.68 30.9095C140.544 31.0732 140.449 31.2642 140.394 31.4825C140.339 31.7008 140.203 31.8782 139.985 32.0146C139.93 32.3967 139.78 32.6832 139.534 32.8742C139.316 33.0925 139.152 33.3654 139.043 33.6928C138.716 33.7201 138.484 33.7065 138.347 33.6519C138.238 33.5973 138.115 33.5427 137.979 33.4882C137.952 33.0243 137.952 32.6832 137.979 32.4649C138.034 32.2739 138.061 32.0692 138.061 31.8509C138.061 31.578 137.993 31.3734 137.856 31.2369C137.72 31.1005 137.624 30.9231 137.57 30.7048C137.27 30.5138 137.065 30.391 136.956 30.3365C136.847 30.2546 136.751 30.1591 136.669 30.0499C136.505 29.8316 136.369 29.5997 136.26 29.3541C136.151 29.1085 136.028 28.8766 135.892 28.6583C135.51 28.0307 135.114 27.3894 134.705 26.7345C134.322 26.0796 133.9 25.4384 133.436 24.8107C133.354 24.6743 133.258 24.5515 133.149 24.4424C133.04 24.3332 132.944 24.2104 132.863 24.074C132.399 23.3372 131.962 22.5868 131.553 21.8228C131.144 21.0587 130.666 20.3356 130.12 19.6534C129.902 19.3805 129.738 19.0804 129.629 18.7529C129.52 18.3982 129.356 18.098 129.138 17.8524C129.111 17.9889 129.097 18.139 129.097 18.3027C129.097 18.4664 129.097 18.6165 129.097 18.7529C129.097 19.6807 129.111 20.6085 129.138 21.5363C129.192 22.4367 129.22 23.3509 129.22 24.2786C129.22 24.4697 129.192 24.647 129.138 24.8107C129.111 24.9472 129.097 25.1109 129.097 25.3019C129.097 25.5748 129.111 25.834 129.138 26.0796C129.165 26.3252 129.179 26.5708 129.179 26.8164C129.179 27.1165 129.165 27.4031 129.138 27.6759C129.138 27.9488 129.124 28.2217 129.097 28.4946C129.042 28.8493 128.974 29.1904 128.892 29.5178C128.81 29.818 128.77 30.1318 128.77 30.4593C128.77 30.6503 128.783 30.8276 128.81 30.9914C128.865 31.1551 128.892 31.3052 128.892 31.4416C128.701 31.7418 128.456 31.8918 128.156 31.8918C127.883 31.8918 127.651 32.001 127.46 32.2193C127.296 32.192 127.16 32.2056 127.05 32.2602C126.969 32.3148 126.887 32.3421 126.805 32.3421C126.696 32.3421 126.6 32.3284 126.518 32.3012C126.464 32.2739 126.395 32.2602 126.314 32.2602C126.177 32.2602 126.041 32.3284 125.904 32.4649C125.768 32.6013 125.631 32.6695 125.495 32.6695C125.413 32.6695 125.263 32.615 125.045 32.5058C124.854 32.3967 124.635 32.2602 124.39 32.0965C124.172 31.9601 123.967 31.81 123.776 31.6463C123.585 31.5098 123.489 31.4007 123.489 31.3188C123.462 31.1824 123.448 30.9914 123.448 30.7458C123.448 30.4183 123.462 30.1045 123.489 29.8044C123.544 29.4769 123.599 29.1495 123.653 28.822C123.735 27.8942 123.776 26.9801 123.776 26.0796C123.776 25.1518 123.776 24.2241 123.776 23.2963C123.776 22.9143 123.776 22.5322 123.776 22.1502C123.803 21.7682 123.817 21.3862 123.817 21.0041C123.817 20.1037 123.776 19.2032 123.694 18.3027C123.639 17.3749 123.612 16.4608 123.612 15.5603C123.612 14.9327 123.639 14.3187 123.694 13.7184C123.749 13.0908 123.776 12.4768 123.776 11.8765C123.776 11.4126 123.762 10.9624 123.735 10.5258C123.708 10.0892 123.694 9.63892 123.694 9.17504C123.667 8.87487 123.667 8.56107 123.694 8.23362C123.721 7.87888 123.735 7.55143 123.735 7.25127C123.735 6.89653 123.68 6.56908 123.571 6.26892C123.489 5.94147 123.448 5.64131 123.448 5.36844C123.448 5.20471 123.476 5.05463 123.53 4.91819C123.612 4.75447 123.653 4.59074 123.653 4.42702C123.653 4.20872 123.612 3.99042 123.53 3.77212C123.476 3.55382 123.448 3.33552 123.448 3.11722C123.448 2.89892 123.476 2.69426 123.53 2.50325C123.585 2.31224 123.612 2.10758 123.612 1.88928C123.994 1.69827 124.335 1.60277 124.635 1.60277C124.936 1.60277 125.154 1.71192 125.29 1.93022C125.29 2.42139 125.318 2.80341 125.372 3.07629C125.427 3.32188 125.468 3.58111 125.495 3.85398C125.495 4.01771 125.481 4.20872 125.454 4.42702C125.454 4.64532 125.468 4.86362 125.495 5.08192C125.522 5.27293 125.577 5.43665 125.659 5.57309C125.768 5.70953 125.945 5.77775 126.191 5.77775C126.245 5.91418 126.314 6.03698 126.395 6.14613C126.477 6.25528 126.532 6.39172 126.559 6.55544C126.723 6.44629 126.818 6.29621 126.846 6.1052C126.873 5.91418 126.873 5.73682 126.846 5.57309C126.982 5.62767 127.105 5.65495 127.214 5.65495C127.323 5.62767 127.432 5.64131 127.542 5.69589C127.596 6.07791 127.664 6.419 127.746 6.71916C127.828 6.99204 127.855 7.31949 127.828 7.70151C128.374 8.11083 128.838 8.6975 129.22 9.46155C129.629 10.1983 130.011 10.8669 130.366 11.4672C130.557 11.7673 130.775 12.0539 131.021 12.3267C131.294 12.5723 131.498 12.8725 131.635 13.2272C131.853 13.3637 132.03 13.541 132.167 13.7593C132.303 13.9776 132.426 14.1959 132.535 14.4142C133.081 15.3693 133.681 16.2971 134.336 17.1975C134.991 18.098 135.673 18.9849 136.383 19.8581C136.41 19.6671 136.424 19.4897 136.424 19.326C136.424 19.135 136.424 18.9439 136.424 18.7529L136.383 15.0691C136.383 14.8508 136.369 14.6462 136.342 14.4552C136.342 14.2641 136.328 14.0595 136.301 13.8412C136.246 13.1317 136.233 12.4359 136.26 11.7537C136.287 11.0715 136.287 10.3757 136.26 9.66621C136.205 8.92945 136.164 8.17904 136.137 7.41499C136.137 6.65095 136.11 5.8869 136.055 5.12285C136.028 4.65896 136.001 4.19508 135.973 3.73119C135.946 3.2673 135.932 2.80341 135.932 2.33953C135.932 1.76649 135.987 1.24803 136.096 0.784143C136.151 0.729568 136.205 0.688637 136.26 0.661349C136.342 0.606774 136.437 0.579487 136.546 0.579487C136.71 0.579487 136.819 0.715924 136.874 0.988799Z" fill="#BAC4D1"/>
<path d="M152.632 20.7995C152.687 20.9359 152.878 21.2224 153.205 21.659C153.56 22.0956 153.956 22.5732 154.392 23.0916C154.829 23.6101 155.238 24.1149 155.62 24.6061C156.03 25.07 156.316 25.4111 156.48 25.6294C156.78 26.0114 157.067 26.3934 157.339 26.7754C157.64 27.1302 157.913 27.5122 158.158 27.9215L158.895 29.1495C159.113 29.4223 159.304 29.6543 159.468 29.8453C159.659 30.0363 159.809 30.2955 159.918 30.623C159.973 30.8413 160 30.9914 160 31.0732C160 31.2642 159.932 31.4007 159.795 31.4825C159.577 31.4825 159.454 31.5098 159.427 31.5644C159.427 31.6463 159.372 31.7145 159.263 31.769C159.154 31.8236 158.977 31.8509 158.731 31.8509C158.513 31.8782 158.335 31.8918 158.199 31.8918C157.953 31.8918 157.64 31.8782 157.258 31.8509C156.903 31.8509 156.616 31.8918 156.398 31.9737C156.343 32.001 156.262 32.0419 156.152 32.0965C156.043 32.1511 155.961 32.1784 155.907 32.1784C155.689 32.1784 155.525 32.1374 155.416 32.0556C155.334 32.001 155.211 31.9601 155.047 31.9328C154.829 31.6872 154.638 31.4416 154.474 31.196C154.338 30.9231 154.174 30.6503 153.983 30.3774C153.792 30.1864 153.601 30.0227 153.41 29.8862C153.219 29.7225 153.055 29.5451 152.919 29.3541C152.51 28.7538 152.087 28.1671 151.65 27.5941C151.213 27.021 150.763 26.4616 150.299 25.9159C150.081 25.6157 149.849 25.3429 149.603 25.0973C149.358 24.8517 149.126 24.5788 148.908 24.2786C148.689 24.0058 148.485 23.7192 148.294 23.4191C148.103 23.0916 147.912 22.7778 147.721 22.4777C147.557 22.2321 147.339 21.9183 147.066 21.5363C146.793 21.1269 146.493 20.7313 146.165 20.3492C145.838 19.9399 145.51 19.5579 145.183 19.2032C144.855 18.8484 144.583 18.5756 144.364 18.3846C144.337 18.2208 144.269 18.098 144.16 18.0162C144.05 17.907 143.928 17.8115 143.791 17.7297C143.737 17.5932 143.682 17.4704 143.628 17.3613C143.546 17.2248 143.505 17.0884 143.505 16.952C143.505 16.7609 143.546 16.5836 143.628 16.4199C143.682 16.3107 143.723 16.2152 143.75 16.1333C143.75 16.0242 143.778 15.915 143.832 15.8059C143.969 15.5057 144.146 15.2192 144.364 14.9463C144.61 14.6462 144.801 14.3324 144.937 14.0049C144.992 13.9231 145.019 13.8412 145.019 13.7593C145.019 13.6502 145.046 13.5547 145.101 13.4728C145.156 13.2545 145.265 13.0771 145.428 12.9407C145.62 12.777 145.77 12.5996 145.879 12.4086C146.015 12.1903 146.138 11.972 146.247 11.7537C146.384 11.5081 146.52 11.2489 146.656 10.976C147.066 10.2938 147.489 9.63892 147.925 9.01131C148.389 8.35641 148.853 7.70151 149.317 7.04661C149.672 6.50086 150.013 5.9824 150.34 5.49123C150.695 4.97277 151.05 4.45431 151.404 3.93584C151.595 3.69026 151.8 3.40374 152.018 3.07629C152.237 2.74884 152.469 2.42139 152.714 2.09394C152.987 1.76649 153.26 1.46633 153.533 1.19345C153.806 0.92058 154.079 0.702281 154.352 0.538556C154.761 0.511268 155.034 0.606774 155.17 0.825074C155.307 1.01609 155.511 1.11159 155.784 1.11159C156.139 1.19345 156.371 1.3026 156.48 1.43904C156.589 1.57548 156.712 1.71192 156.848 1.84835C157.23 1.84835 157.53 1.91657 157.749 2.05301C157.994 2.18945 158.226 2.3941 158.445 2.66698C158.363 2.96714 158.24 3.24001 158.076 3.4856C157.913 3.7039 157.762 3.93584 157.626 4.18143C157.408 4.29058 157.244 4.44066 157.135 4.63167C157.053 4.82269 156.917 4.97277 156.726 5.08192C156.453 5.5458 156.166 5.99605 155.866 6.43265C155.566 6.84196 155.266 7.25127 154.965 7.66058C154.802 7.90617 154.624 8.12447 154.433 8.31548C154.27 8.50649 154.12 8.71115 153.983 8.92945C153.929 9.01131 153.874 9.10682 153.819 9.21597C153.792 9.29783 153.751 9.37969 153.697 9.46155C153.369 9.98002 153.014 10.4712 152.632 10.9351C152.25 11.3717 151.896 11.8629 151.568 12.4086C151.459 12.5996 151.364 12.8043 151.282 13.0226C151.227 13.2136 151.145 13.4046 151.036 13.5956C150.927 13.7593 150.763 13.9776 150.545 14.2505C150.354 14.5234 150.163 14.8235 149.972 15.151C149.781 15.4512 149.603 15.7513 149.44 16.0515C149.303 16.3243 149.235 16.5563 149.235 16.7473C149.262 16.8837 149.426 17.1566 149.726 17.5659C150.054 17.948 150.408 18.3709 150.79 18.8348C151.2 19.2714 151.582 19.6943 151.937 20.1037C152.291 20.4857 152.523 20.7176 152.632 20.7995ZM155.334 13.35C155.525 13.7593 155.73 14.1141 155.948 14.4142C156.03 14.5234 156.125 14.6189 156.234 14.7007C156.343 14.7826 156.425 14.8918 156.48 15.0282C156.534 15.0828 156.589 15.2056 156.644 15.3966C156.698 15.5603 156.753 15.6831 156.807 15.765C156.889 15.9833 157.053 16.2288 157.299 16.5017C157.544 16.7746 157.667 17.0202 157.667 17.2385C157.667 17.3749 157.64 17.525 157.585 17.6887C157.53 17.8524 157.49 18.0025 157.462 18.139C157.435 18.3027 157.421 18.4801 157.421 18.6711C157.421 18.8348 157.367 18.9849 157.258 19.1213C157.121 19.2578 156.971 19.3396 156.807 19.3669C156.644 19.3942 156.494 19.4624 156.357 19.5716C156.303 19.6261 156.221 19.7216 156.112 19.8581C156.002 19.9945 155.893 20.1446 155.784 20.3083C155.675 20.472 155.566 20.6358 155.457 20.7995C155.375 20.9359 155.334 21.0451 155.334 21.1269C155.006 21.1542 154.788 21.1679 154.679 21.1679C154.597 21.1406 154.502 21.1406 154.392 21.1679C154.256 21.0314 154.106 20.9223 153.942 20.8404C153.806 20.7313 153.628 20.6358 153.41 20.5539C153.355 20.3356 153.233 20.09 153.042 19.8171C152.851 19.517 152.687 19.2714 152.551 19.0804L152.264 18.712C151.855 18.139 151.473 17.5932 151.118 17.0748C150.79 16.529 150.545 15.9287 150.381 15.2738C150.9 14.8918 151.295 14.6052 151.568 14.4142C151.868 14.2232 152.182 14.0458 152.51 13.8821C152.837 13.7184 153.151 13.5683 153.451 13.4319C153.778 13.2682 154.079 13.0771 154.352 12.8588C154.57 12.8588 154.72 12.8725 154.802 12.8998C154.884 12.9271 154.938 12.9543 154.965 12.9816C154.993 13.0089 155.02 13.0635 155.047 13.1454C155.102 13.1999 155.197 13.2682 155.334 13.35Z" fill="#BAC4D1"/>
</g>
</svg>
