<svg width="160" height="26" viewBox="0 0 160 26" fill="none" xmlns="http://www.w3.org/2000/svg">
<g id="Shopania">
<path d="M8.34674 0.339844C9.49062 0.339844 10.4736 0.494744 11.2958 0.804544C12.0584 1.10243 12.7733 1.25137 13.4406 1.25137C14.1198 1.25137 14.4593 1.00711 14.4593 0.518575H14.8168L15.1385 6.02349H14.7811C14.7811 5.6422 14.6917 5.18941 14.513 4.66513C14.3342 4.14086 14.0363 3.56296 13.6193 2.93144C13.2023 2.29993 12.541 1.76969 11.6354 1.34074C10.7298 0.911783 9.65743 0.697306 8.41823 0.697306C5.98749 0.697306 4.77212 1.53734 4.77212 3.21741C4.77212 4.77833 5.48108 6.15456 6.89902 7.3461L13.7265 13.1012C15.776 14.829 16.8007 16.795 16.8007 18.9994C16.8007 20.8939 15.7879 22.4072 13.7623 23.5391C12.0465 24.5162 9.86595 25.0047 7.22073 25.0047C5.43342 25.0047 3.89634 24.5758 2.60947 23.7179C2.25201 23.4796 1.91838 23.3604 1.60858 23.3604C1.09622 23.3604 0.714924 23.6464 0.464701 24.2183C0.393208 24.3851 0.357462 24.5877 0.357462 24.826H0L0.107239 19.2496H0.464701C0.464701 19.5356 0.524278 19.8751 0.643432 20.2684C0.941317 21.2573 1.57283 22.1986 2.53798 23.0923C3.0146 23.5332 3.66399 23.9025 4.48615 24.2004C5.30831 24.4983 6.21984 24.6473 7.22073 24.6473C8.53143 24.6473 9.58594 24.3196 10.3843 23.6642C11.2064 22.9851 11.6175 22.1569 11.6175 21.1799C11.6175 19.619 11.1171 18.4155 10.1162 17.5695L3.28865 11.8144C1.17962 10.039 0.125112 8.06102 0.125112 5.88051C0.125112 4.18852 0.988978 2.81229 2.71671 1.75182C4.24188 0.810502 6.11856 0.339844 8.34674 0.339844Z" fill="#BAC4D1"/>
<path d="M33.0474 22.002L33.0652 15.3532H26.6309V21.9663C26.6309 23.6345 27.5842 24.4685 29.4906 24.4685V24.826H18.0518V24.4685C19.9583 24.4685 20.9115 23.6345 20.9115 21.9663V9.09766C20.9115 7.42951 19.9583 6.59543 18.0518 6.59543V6.23797H25.2011C26.1543 6.23797 26.6309 7.1912 26.6309 9.09766V14.9958H33.0652V9.09766C33.0652 7.42951 32.112 6.59543 30.2055 6.59543V6.23797H41.6443V6.59543C39.7379 6.59543 38.7846 7.42951 38.7846 9.09766V21.9663C38.7846 23.6345 39.7379 24.4685 41.6443 24.4685L41.6265 24.826H34.4772C33.524 24.826 33.0474 23.8847 33.0474 22.002Z" fill="#BAC4D1"/>
<path d="M52.7256 24.6473C54.5368 24.6473 55.7045 24.0157 56.2288 22.7527C56.7531 21.4658 57.0152 19.0589 57.0152 15.532C57.0152 12.005 56.7531 9.59811 56.2288 8.31125C55.7045 7.04821 54.5368 6.4167 52.7256 6.4167C50.6762 6.4167 49.4251 7.20311 48.9723 8.77595C48.6148 10.039 48.4361 12.291 48.4361 15.532C48.4361 18.773 48.6148 21.025 48.9723 22.288C49.4251 23.8608 50.6762 24.6473 52.7256 24.6473ZM60.1609 22.5382C58.4212 24.1826 55.9428 25.0047 52.7256 25.0047C49.5085 25.0047 47.0301 24.1826 45.2904 22.5382C43.5746 20.8939 42.7167 18.5585 42.7167 15.532C42.7167 12.5293 43.5865 10.1939 45.3262 8.52572C47.0658 6.8814 49.5323 6.05924 52.7256 6.05924C55.919 6.05924 58.3855 6.8814 60.1251 8.52572C61.8648 10.1939 62.7346 12.5293 62.7346 15.532C62.7346 18.5585 61.8767 20.8939 60.1609 22.5382Z" fill="#BAC4D1"/>
<path d="M63.4495 6.23797H74.8883C77.8671 6.23797 80.1966 6.82778 81.8767 8.0074C83.8904 9.42534 84.8972 11.2186 84.8972 13.3872C84.8972 15.5558 83.8904 17.2299 81.8767 18.4095C80.2681 19.3509 77.9386 19.8215 74.8883 19.8215H72.0286V21.9663C72.0286 23.6345 72.9818 24.4685 74.8883 24.4685V24.826H63.4495V24.4685C65.356 24.4685 66.3092 23.6345 66.3092 21.9663V8.77595C66.2377 7.32227 65.2845 6.59543 63.4495 6.59543V6.23797ZM72.0286 6.59543V19.4641H74.8883C77.748 19.4641 79.1778 17.4384 79.1778 13.3872C79.1778 8.85935 77.748 6.59543 74.8883 6.59543H72.0286Z" fill="#BAC4D1"/>
<path d="M89.7945 8.43636C89.1749 7.20907 88.1501 6.59543 86.7203 6.59543V6.23797H93.6193C94.644 6.23797 95.4424 7.11971 96.0143 8.88319L100.304 22.0378C100.828 23.6583 101.948 24.4685 103.664 24.4685V24.826H92.2252V24.4685C93.7742 24.4685 94.5487 24.0634 94.5487 23.2532C94.5487 22.9791 94.4772 22.6216 94.3342 22.1808L92.7435 17.3193H87.3101L85.7194 22.1808C85.5764 22.6216 85.5049 22.9672 85.5049 23.2174C85.5049 24.0515 86.3747 24.4685 88.1144 24.4685V24.826H82.0375V24.4685C83.7295 24.4685 84.8377 23.6583 85.3619 22.0378L89.7945 8.43636ZM92.6363 16.9618L90.0447 9.02617L90.0268 8.99042L87.4173 16.9618H92.6363Z" fill="#BAC4D1"/>
<path d="M122.091 24.826H117.891L108.132 9.09766V21.9663C108.132 23.6345 109.085 24.4685 110.992 24.4685V24.826H104.915V24.4685C106.822 24.4685 107.775 23.6345 107.775 21.9663V9.09766C107.775 7.42951 106.822 6.59543 104.915 6.59543V6.23797H113.083L121.734 20.0717V9.09766C121.734 7.42951 120.78 6.59543 118.874 6.59543V6.23797H124.951V6.59543C123.044 6.59543 122.091 7.42951 122.091 9.09766V24.826Z" fill="#BAC4D1"/>
<path d="M126.22 6.23797H137.659V6.59543C135.752 6.59543 134.799 7.42951 134.799 9.09766V21.9663C134.799 23.6345 135.752 24.4685 137.659 24.4685V24.826H126.22V24.4685C128.126 24.4685 129.08 23.6345 129.08 21.9663V9.09766C129.08 7.42951 128.126 6.59543 126.22 6.59543V6.23797Z" fill="#BAC4D1"/>
<path d="M146.13 8.43636C145.511 7.20907 144.486 6.59543 143.056 6.59543V6.23797H149.955C150.98 6.23797 151.778 7.11971 152.35 8.88319L156.64 22.0378C157.164 23.6583 158.284 24.4685 160 24.4685V24.826H148.561V24.4685C150.11 24.4685 150.885 24.0634 150.885 23.2532C150.885 22.9791 150.813 22.6216 150.67 22.1808L149.08 17.3193H143.646L142.055 22.1808C141.912 22.6216 141.841 22.9672 141.841 23.2174C141.841 24.0515 142.711 24.4685 144.45 24.4685V24.826H138.374V24.4685C140.066 24.4685 141.174 23.6583 141.698 22.0378L146.13 8.43636ZM148.972 16.9618L146.381 9.02617L146.363 8.99042L143.753 16.9618H148.972Z" fill="#BAC4D1"/>
</g>
</svg>
