<svg width="160" height="36" viewBox="0 0 160 36" fill="none" xmlns="http://www.w3.org/2000/svg">
<g id="TECHNOVA">
<path d="M16.4796 5.33869H10.8031V35.2177H5.67657V5.33869H0V0.784239H16.4796V5.33869Z" fill="#BAC4D1"/>
<path d="M33.3993 35.2177H19.1199V0.784239H33.2673V5.33869H24.2684V15.3937H32.0132V19.8601H24.2684V30.6632H33.3993V35.2177Z" fill="#BAC4D1"/>
<path d="M53.8834 32.0714C53.8834 34.1689 52.8346 35.2177 50.7371 35.2177H40C37.9611 35.2177 36.9417 34.1689 36.9417 32.0714V3.95256C36.9417 1.84034 37.9611 0.784239 40 0.784239H50.7371C52.8346 0.784239 53.8834 1.84034 53.8834 3.95256V12.0054H48.7569V5.20668H42.0902V30.7952H48.7569V23.5565H53.8834V32.0714Z" fill="#BAC4D1"/>
<path d="M75.2475 35.2177H70.055V19.7721H63.0803V35.2177H57.9318V0.784239H63.0803V14.9757H70.055V0.784239H75.2475V35.2177Z" fill="#BAC4D1"/>
<path d="M96.8097 35.2177H92.2992L84.0484 13.5455C84.2684 14.6016 84.3784 15.4304 84.3784 16.0318V35.2177H79.3619V0.784239H83.8724L92.1232 22.0164C91.9032 20.9603 91.7932 20.1315 91.7932 19.5301V0.784239H96.8097V35.2177Z" fill="#BAC4D1"/>
<path d="M118.328 32.0714C118.328 34.1689 117.286 35.2177 115.204 35.2177H104.026C101.988 35.2177 100.968 34.1689 100.968 32.0714V3.95256C100.968 1.84034 101.988 0.784239 104.026 0.784239H115.204C117.286 0.784239 118.328 1.84034 118.328 3.95256V32.0714ZM113.179 30.7952V5.20668H106.117V30.7952H113.179Z" fill="#BAC4D1"/>
<path d="M139.626 0.784239L133.025 35.2617H127.899L121.32 0.784239H126.491L130.341 24.3926C130.37 25.0673 130.414 26.0501 130.473 27.3409C130.458 26.6662 130.502 25.6834 130.605 24.3926L134.477 0.784239H139.626Z" fill="#BAC4D1"/>
<path d="M160 35.2177H154.895L153.861 28.683H147.415L146.381 35.2177H141.298V35.1297L147.965 0.740234H153.377L160 35.2177ZM153.135 24.2606L150.627 8.72703L148.097 24.2606H153.135Z" fill="#BAC4D1"/>
</g>
</svg>
