<svg width="160" height="36" viewBox="0 0 160 36" fill="none" xmlns="http://www.w3.org/2000/svg">
<g id="TRACIC">
<path d="M26.1384 1.32945H0V9.86445H7.73484V34.6693H18.4036V9.86445H26.1384V1.32945Z" fill="#BAC4D1"/>
<path d="M52.3484 23.556L58.1273 34.6693H46.3917L42.0353 24.7563H39.7237V34.6693H29.055V1.32945H45.8583C53.5042 1.32945 57.3272 5.22651 57.3272 13.0206C57.3272 18.355 55.6676 21.8668 52.3484 23.556ZM42.1687 9.86445H39.7237V16.5324H42.1687C43.4726 16.5324 44.4061 16.3991 44.9692 16.1323C45.5619 15.8656 45.8583 15.2581 45.8583 14.3098V12.0871C45.8583 11.1388 45.5619 10.5312 44.9692 10.2645C44.4061 9.99781 43.4726 9.86445 42.1687 9.86445Z" fill="#BAC4D1"/>
<path d="M71.0312 29.3794H79.833L81.0776 34.6693H92.3243L83.7004 1.32945H67.2083L58.5844 34.6693H69.831L71.0312 29.3794ZM75.7433 11.5537L77.877 20.8888H72.9872L75.1654 11.5537H75.7433Z" fill="#BAC4D1"/>
<path d="M116.527 25.1119L117.327 34.0914C115.045 35.0101 112.229 35.4695 108.881 35.4695C105.71 35.4695 103.087 35.1287 101.012 34.447C98.938 33.7358 97.2932 32.6689 96.0781 31.2464C94.8631 29.8239 94.0037 28.0161 93.4999 25.8231C93.0257 23.6301 92.7886 21.037 92.7886 18.0438C92.7886 15.1396 93.0109 12.6057 93.4554 10.4423C93.9296 8.24932 94.7594 6.42674 95.9448 4.97461C97.1302 3.49284 98.7305 2.38151 100.746 1.64062C102.791 0.899739 105.369 0.529297 108.481 0.529297C109.162 0.529297 109.918 0.573749 110.748 0.662655C111.607 0.721926 112.437 0.810832 113.237 0.929373C114.067 1.04791 114.837 1.19609 115.549 1.37391C116.289 1.52208 116.882 1.6999 117.327 1.90734L115.726 10.0867C113.356 9.58292 111.237 9.33101 109.37 9.33101C107.443 9.33101 106.11 9.50883 105.369 9.86445C104.628 10.2201 104.258 10.9313 104.258 11.9982V25.9565C104.939 26.1047 105.621 26.2232 106.302 26.3121C107.014 26.3714 107.74 26.401 108.481 26.401C111.444 26.401 114.126 25.9713 116.527 25.1119Z" fill="#BAC4D1"/>
<path d="M131.712 34.6693V1.32945H121.043V34.6693H131.712Z" fill="#BAC4D1"/>
<path d="M159.2 25.1119L160 34.0914C157.718 35.0101 154.903 35.4695 151.554 35.4695C148.383 35.4695 145.76 35.1287 143.686 34.447C141.611 33.7358 139.966 32.6689 138.751 31.2464C137.536 29.8239 136.677 28.0161 136.173 25.8231C135.699 23.6301 135.462 21.037 135.462 18.0438C135.462 15.1396 135.684 12.6057 136.129 10.4423C136.603 8.24932 137.433 6.42674 138.618 4.97461C139.803 3.49284 141.404 2.38151 143.419 1.64062C145.464 0.899739 148.042 0.529297 151.154 0.529297C151.835 0.529297 152.591 0.573749 153.421 0.662655C154.28 0.721926 155.11 0.810832 155.91 0.929373C156.74 1.04791 157.511 1.19609 158.222 1.37391C158.963 1.52208 159.555 1.6999 160 1.90734L158.4 10.0867C156.029 9.58292 153.91 9.33101 152.043 9.33101C150.117 9.33101 148.783 9.50883 148.042 9.86445C147.301 10.2201 146.931 10.9313 146.931 11.9982V25.9565C147.612 26.1047 148.294 26.2232 148.976 26.3121C149.687 26.3714 150.413 26.401 151.154 26.401C154.117 26.401 156.799 25.9713 159.2 25.1119Z" fill="#BAC4D1"/>
</g>
</svg>
