<svg width="160" height="42" viewBox="0 0 160 42" fill="none" xmlns="http://www.w3.org/2000/svg">
<g id="upside">
<path d="M26.6407 31.431C26.6407 31.8461 26.5666 32.2315 26.4183 32.5873C26.2701 32.9431 26.0625 33.2545 25.7957 33.5213C25.5437 33.7733 25.2397 33.9735 24.8839 34.1217C24.543 34.27 24.1723 34.3441 23.7721 34.3441H10.6963C9.98471 34.3441 9.22122 34.2626 8.40584 34.0995C7.60528 33.9364 6.81214 33.677 6.02641 33.3212C5.24068 32.9505 4.47718 32.491 3.73593 31.9424C3.0095 31.3791 2.37202 30.7045 1.82349 29.9188C1.27496 29.1183 0.830206 28.1991 0.489229 27.1613C0.163076 26.1236 0 24.9524 0 23.6478V10.3052H5.78179V23.6478C5.78179 24.4039 5.90781 25.0858 6.15983 25.6937C6.42669 26.2867 6.78249 26.7981 7.22724 27.2281C7.67199 27.658 8.19087 27.9915 8.78388 28.2288C9.39171 28.4511 10.044 28.5623 10.7408 28.5623H20.8589V10.3052H26.6407V31.431Z" fill="#BAC4D1"/>
<path d="M58.574 26.2274C58.574 27.2206 58.448 28.1176 58.196 28.9181C57.9439 29.7038 57.6104 30.4006 57.1953 31.0085C56.7802 31.6015 56.2984 32.1129 55.7498 32.5429C55.2013 32.958 54.6231 33.2989 54.0153 33.5658C53.4223 33.8326 52.8219 34.0328 52.214 34.1662C51.6062 34.2848 51.028 34.3441 50.4795 34.3441H40.05V28.5623H50.4795C51.2504 28.5623 51.8286 28.3622 52.214 27.9619C52.5995 27.5616 52.7922 26.9834 52.7922 26.2274V18.4442C52.7922 17.6436 52.5921 17.0506 52.1918 16.6652C51.8064 16.2797 51.2356 16.087 50.4795 16.087H40.0945C39.3088 16.087 38.7158 16.2871 38.3155 16.6874C37.9152 17.0729 37.7151 17.6436 37.7151 18.3997V41.8604H31.9333V18.3997C31.9333 17.4064 32.0593 16.5169 32.3113 15.7312C32.5634 14.9455 32.8969 14.2561 33.312 13.6631C33.742 13.0552 34.2312 12.5438 34.7797 12.1287C35.3282 11.6988 35.899 11.3504 36.492 11.0835C37.0998 10.8167 37.7077 10.6239 38.3155 10.5053C38.9382 10.3719 39.5163 10.3052 40.05 10.3052H50.4795C51.4728 10.3052 52.3623 10.4312 53.148 10.6832C53.9338 10.9353 54.6231 11.2688 55.2161 11.6839C55.824 12.099 56.3354 12.5808 56.7505 13.1294C57.1805 13.6779 57.5288 14.2561 57.7957 14.8639C58.0625 15.4569 58.2553 16.0573 58.3739 16.6652C58.5073 17.273 58.574 17.8512 58.574 18.3997V26.2274Z" fill="#BAC4D1"/>
<path d="M86.7491 26.2274C86.7491 27.2206 86.6231 28.1176 86.3711 28.9181C86.1191 29.7038 85.7855 30.4006 85.3704 31.0085C84.9553 31.6015 84.4735 32.1129 83.9249 32.5429C83.3764 32.958 82.7982 33.2989 82.1904 33.5658C81.5974 33.8326 80.9896 34.0328 80.3669 34.1662C79.7591 34.2848 79.1809 34.3441 78.6324 34.3441H62.9771V28.5623H78.5879C79.3736 28.5623 79.9666 28.3622 80.3669 27.9619C80.7672 27.5616 80.9673 26.9834 80.9673 26.2274C80.8932 24.6855 80.1149 23.9146 78.6324 23.9146H69.6706C68.3956 23.9146 67.3134 23.6923 66.4239 23.2475C65.5344 22.8028 64.808 22.2468 64.2446 21.5797C63.6961 20.9126 63.2958 20.1935 63.0438 19.4226C62.8066 18.6517 62.688 17.9327 62.688 17.2656C62.688 15.9758 62.9178 14.8936 63.3773 14.0189C63.8369 13.1294 64.4151 12.4104 65.1119 11.8618C65.8087 11.3133 66.5647 10.9204 67.3801 10.6832C68.1955 10.4312 68.959 10.3052 69.6706 10.3052H83.8805V16.087H69.7151C69.4186 16.087 69.1814 16.124 69.0035 16.1982C68.8404 16.2575 68.7144 16.3464 68.6254 16.465C68.5513 16.5688 68.5068 16.6874 68.492 16.8208C68.4772 16.9394 68.4698 17.058 68.4698 17.1766C68.4846 17.4138 68.5291 17.5991 68.6032 17.7326C68.6773 17.866 68.7663 17.9624 68.87 18.0217C68.9887 18.081 69.1147 18.118 69.2481 18.1329C69.3963 18.1329 69.5372 18.1329 69.6706 18.1329H78.6324C80.1149 18.1329 81.375 18.3997 82.4128 18.9334C83.4505 19.4671 84.2882 20.1417 84.9256 20.957C85.5631 21.7576 86.0227 22.6323 86.3044 23.5811C86.6009 24.5299 86.7491 25.412 86.7491 26.2274Z" fill="#BAC4D1"/>
<path d="M96.6894 5.36843H90.9076V0.142578H96.6894V5.36843ZM96.6894 34.3441H90.9076V10.3052H96.6894V34.3441Z" fill="#BAC4D1"/>
<path d="M128.623 26.2274C128.623 27.2206 128.497 28.1176 128.245 28.9181C127.993 29.7038 127.659 30.4006 127.244 31.0085C126.829 31.6015 126.347 32.1129 125.798 32.5429C125.25 32.958 124.672 33.2989 124.064 33.5658C123.471 33.8326 122.863 34.0328 122.24 34.1662C121.633 34.2848 121.054 34.3441 120.506 34.3441H110.076C109.083 34.3441 108.194 34.2181 107.408 33.9661C106.622 33.714 105.925 33.3805 105.318 32.9654C104.725 32.5354 104.213 32.0462 103.783 31.4977C103.368 30.9492 103.027 30.3784 102.76 29.7854C102.493 29.1776 102.293 28.5697 102.16 27.9619C102.041 27.3392 101.982 26.7611 101.982 26.2274V18.3997C101.982 16.9172 102.249 15.6645 102.782 14.6415C103.331 13.6038 104.006 12.7662 104.806 12.1287C105.621 11.4764 106.504 11.0094 107.452 10.7277C108.401 10.446 109.276 10.3052 110.076 10.3052H120.506V16.087H110.121C109.35 16.087 108.764 16.2871 108.364 16.6874C107.964 17.0729 107.764 17.6436 107.764 18.3997V26.1829C107.764 26.9686 107.956 27.5616 108.342 27.9619C108.742 28.3622 109.32 28.5623 110.076 28.5623H120.506C121.292 28.5623 121.877 28.3622 122.263 27.9619C122.648 27.5616 122.841 26.9834 122.841 26.2274V0.142578H128.623V26.2274Z" fill="#BAC4D1"/>
<path d="M160 18.2663C160 19.0668 159.859 19.9341 159.577 20.8681C159.296 21.7872 158.836 22.6471 158.199 23.4477C157.576 24.2334 156.753 24.8931 155.73 25.4268C154.722 25.9605 153.492 26.2274 152.039 26.2274H141.609V20.7347H152.039C152.825 20.7347 153.432 20.4975 153.862 20.0231C154.292 19.5338 154.507 18.9334 154.507 18.2218C154.507 17.4657 154.263 16.8727 153.773 16.4428C153.299 16.0129 152.721 15.7979 152.039 15.7979H141.609C140.824 15.7979 140.216 16.0425 139.786 16.5317C139.356 17.0061 139.141 17.5991 139.141 18.3108V26.383C139.141 27.1539 139.378 27.7543 139.853 28.1843C140.342 28.6142 140.942 28.8292 141.654 28.8292H152.039V34.3441H141.609C140.809 34.3441 139.942 34.2033 139.008 33.9216C138.088 33.6399 137.229 33.1877 136.428 32.5651C135.642 31.9276 134.983 31.1048 134.449 30.0967C133.915 29.0738 133.648 27.8359 133.648 26.383V18.2663C133.648 17.4657 133.789 16.6059 134.071 15.6867C134.353 14.7527 134.805 13.8929 135.427 13.1071C136.065 12.3066 136.888 11.6395 137.896 11.1057C138.919 10.572 140.157 10.3052 141.609 10.3052H152.039C152.839 10.3052 153.699 10.446 154.618 10.7277C155.552 11.0094 156.412 11.469 157.198 12.1064C157.999 12.7291 158.666 13.5519 159.199 14.5748C159.733 15.5829 160 16.8134 160 18.2663Z" fill="#BAC4D1"/>
</g>
</svg>
