<svg width="160" height="54" viewBox="0 0 160 54" fill="none" xmlns="http://www.w3.org/2000/svg">
<g id="wofact">
<path d="M36.7117 22.3462C36.7117 21.1722 36.6316 20.2029 36.4716 19.438C36.3115 18.6732 36.1336 18.0418 35.938 17.5438C35.7601 17.028 35.5911 16.61 35.431 16.2898C35.271 15.9519 35.1909 15.6406 35.1909 15.356C35.1909 15.0892 35.2976 14.8669 35.5111 14.689C35.7245 14.5111 35.9735 14.36 36.2581 14.2354C36.5605 14.1109 36.8629 14.022 37.1652 13.9686C37.4854 13.9153 37.7433 13.8886 37.939 13.8886C38.4548 13.8886 38.8283 13.9598 39.0595 14.102C39.2908 14.2443 39.4775 14.52 39.6198 14.9291C39.7799 15.4449 39.8866 16.1297 39.94 16.9835C40.0111 17.8195 40.0467 18.7177 40.0467 19.6782C40.0467 21.0477 39.9667 22.5507 39.8066 24.1871C39.6465 25.8235 39.3886 27.4687 39.0329 29.1229C38.6949 30.777 38.2502 32.3778 37.6989 33.9253C37.1652 35.4727 36.516 36.8512 35.7512 38.0607C34.9864 39.2524 34.1059 40.2129 33.1099 40.9421C32.1138 41.6536 30.9844 42.0093 29.7215 42.0093C28.7255 42.0093 27.8272 41.8137 27.0268 41.4224C26.2442 41.0133 25.5417 40.4619 24.9191 39.7682C24.2966 39.0745 23.7452 38.2652 23.265 37.3403C22.8025 36.3976 22.3934 35.3927 22.0377 34.3255C21.6286 35.4105 21.1572 36.4243 20.6236 37.367C20.09 38.2919 19.4942 39.1012 18.8361 39.7949C18.1958 40.4886 17.4843 41.0311 16.7017 41.4224C15.9191 41.8137 15.0742 42.0093 14.1671 42.0093C13.0465 42.0093 12.0505 41.7692 11.1789 41.289C10.3252 40.7909 9.56923 40.1239 8.91112 39.288C8.25302 38.4342 7.68384 37.447 7.2036 36.3265C6.72336 35.2059 6.30538 34.0231 5.94964 32.778C5.61169 31.533 5.32711 30.2523 5.09588 28.9361C4.86465 27.6199 4.669 26.3482 4.50892 25.1209C4.34884 23.8936 4.21544 22.7464 4.10872 21.6792C4.002 20.612 3.89528 19.6871 3.78856 18.9044C3.66405 18.193 3.47729 17.6416 3.22828 17.2503C2.99705 16.859 2.59685 16.6633 2.02768 16.6633C1.72531 16.6633 1.4674 16.7167 1.25396 16.8234C1.04052 16.9301 0.809294 17.0813 0.56028 17.277L0 16.61C0.409093 16.272 0.862654 15.943 1.36068 15.6228C1.87649 15.2849 2.42788 14.9914 3.01484 14.7424C3.6018 14.4934 4.23323 14.2888 4.90912 14.1287C5.58501 13.9686 6.29648 13.8886 7.04352 13.8886C8.11072 13.8886 8.97338 14.0754 9.63148 14.4489C10.2896 14.8046 10.8054 15.2582 11.1789 15.8096C11.5702 16.3432 11.8459 16.9212 12.006 17.5438C12.1661 18.1663 12.2817 18.7266 12.3528 19.2246C12.673 21.9104 12.9843 24.276 13.2866 26.3215C13.6068 28.367 13.9448 30.0834 14.3005 31.4707C14.6562 32.8403 15.0386 33.8808 15.4477 34.5923C15.8746 35.286 16.3726 35.6328 16.9418 35.6328C17.3153 35.6328 17.68 35.4727 18.0357 35.1526C18.3914 34.8324 18.7294 34.3877 19.0495 33.8186C19.3697 33.2494 19.6721 32.5646 19.9566 31.7642C20.2412 30.946 20.4902 30.0478 20.7037 29.0695C20.5258 28.0913 20.3746 27.1219 20.2501 26.1614C20.1256 25.2009 20.01 24.2849 19.9033 23.4134C19.8144 22.524 19.7254 21.697 19.6365 20.9321C19.5476 20.1673 19.4497 19.4914 19.343 18.9044C19.0762 17.2325 19.2274 15.9785 19.7966 15.1426C20.3835 14.3066 21.5486 13.8886 23.2916 13.8886C24.0565 13.8886 24.6968 13.9598 25.2126 14.102C25.7462 14.2266 26.182 14.4756 26.5199 14.8491C26.8757 15.2048 27.1602 15.7028 27.3737 16.3432C27.5871 16.9657 27.7561 17.7661 27.8806 18.7444C28.2186 21.4124 28.5476 23.7958 28.8678 25.8946C29.1879 27.9934 29.5259 29.7632 29.8816 31.2039C30.2373 32.6446 30.6198 33.7474 31.0288 34.5122C31.4557 35.2593 31.9538 35.6328 32.5229 35.6328C33.1277 35.6328 33.688 35.2593 34.2038 34.5122C34.7196 33.7652 35.1642 32.778 35.5378 31.5508C35.9113 30.3235 36.1959 28.9094 36.3915 27.3086C36.605 25.7078 36.7117 24.0537 36.7117 22.3462Z" fill="#BAC4D1"/>
<path d="M43.5418 27.9223C43.5418 25.5922 43.8797 23.5557 44.5556 21.8126C45.2315 20.0517 46.1297 18.5843 47.2503 17.4104C48.3886 16.2364 49.7049 15.356 51.1989 14.769C52.693 14.1821 54.2582 13.8886 55.8946 13.8886C57.531 13.8886 59.0962 14.1643 60.5903 14.7157C62.0844 15.2493 63.3917 16.0764 64.5123 17.1969C65.6506 18.3175 66.5577 19.7404 67.2336 21.4657C67.9095 23.1732 68.2475 25.2009 68.2475 27.5488C68.2475 29.8788 67.9095 31.9421 67.2336 33.7385C66.5577 35.535 65.6506 37.0468 64.5123 38.2741C63.3917 39.5014 62.0844 40.4352 60.5903 41.0755C59.0962 41.6981 57.531 42.0093 55.8946 42.0093C54.2582 42.0093 52.693 41.7159 51.1989 41.1289C49.7049 40.5241 48.3886 39.6348 47.2503 38.4609C46.1297 37.287 45.2315 35.8196 44.5556 34.0587C43.8797 32.2978 43.5418 30.2523 43.5418 27.9223ZM59.95 27.6555C59.95 26.2326 59.8966 24.863 59.7899 23.5468C59.701 22.2128 59.5142 21.03 59.2296 19.9983C58.945 18.9667 58.5359 18.1485 58.0023 17.5438C57.4687 16.9212 56.7662 16.61 55.8946 16.61C55.0231 16.61 54.3205 16.939 53.7869 17.5971C53.2533 18.2374 52.8442 19.0912 52.5596 20.1584C52.275 21.2078 52.0883 22.4084 51.9993 23.7602C51.9104 25.112 51.8659 26.4994 51.8659 27.9223C51.8659 29.3452 51.9104 30.7415 51.9993 32.111C52.0883 33.4628 52.275 34.6723 52.5596 35.7395C52.8442 36.8067 53.2533 37.6694 53.7869 38.3275C54.3205 38.9678 55.0231 39.288 55.8946 39.288C56.7662 39.288 57.4687 38.95 58.0023 38.2741C58.5359 37.5982 58.945 36.7089 59.2296 35.6061C59.5142 34.5034 59.701 33.2583 59.7899 31.8709C59.8966 30.4836 59.95 29.0784 59.95 27.6555Z" fill="#BAC4D1"/>
<path d="M86.4165 1.90928C85.9185 1.90928 85.4472 2.016 85.0025 2.22944C84.5578 2.44288 84.1665 2.78972 83.8286 3.26996C83.5084 3.73241 83.2505 4.32827 83.0549 5.05752C82.8592 5.78677 82.7614 6.66721 82.7614 7.69884V14.2621H88.6043V16.1831H82.7614V37.2069C82.7614 39.6259 82.4412 41.8581 81.8009 43.9036C81.1784 45.9491 80.2268 47.71 78.9461 49.1863C77.6655 50.6803 76.0647 51.8454 74.1437 52.6813C72.2228 53.5173 69.9817 53.9353 67.4204 53.9353C66.5133 53.9353 65.6417 53.8553 64.8057 53.6952C63.9698 53.5529 63.2316 53.3483 62.5913 53.0815C61.951 52.8147 61.4441 52.4946 61.0705 52.1211C60.6792 51.7653 60.4836 51.3651 60.4836 50.9205C60.4836 50.6003 60.528 50.2712 60.617 49.9333C60.7059 49.6131 60.8393 49.3197 61.0172 49.0529C61.195 48.7861 61.4174 48.5637 61.6842 48.3859C61.9332 48.2258 62.2267 48.1457 62.5646 48.1457C62.7603 48.1457 62.9381 48.2436 63.0982 48.4392C63.2405 48.6349 63.3917 48.875 63.5518 49.1596C63.7119 49.4442 63.8986 49.7554 64.1121 50.0934C64.3077 50.4491 64.5656 50.7693 64.8858 51.0539C65.2059 51.3384 65.6061 51.5786 66.0864 51.7742C66.5488 51.9699 67.118 52.0677 67.7939 52.0677C68.701 52.0677 69.5014 51.8809 70.1951 51.5074C70.8888 51.1517 71.4846 50.6537 71.9827 50.0133C72.4807 49.373 72.8987 48.6171 73.2366 47.7455C73.5746 46.874 73.8414 45.9402 74.037 44.9441C74.2327 43.9481 74.3661 42.9076 74.4372 41.8226C74.5262 40.7376 74.5706 39.6526 74.5706 38.5676V16.1831H69.6615V14.2621H74.5706V11.1406C74.5706 9.57534 74.7574 8.21465 75.1309 7.05852C75.5222 5.8846 76.0291 4.88855 76.6517 4.07036C77.292 3.25217 78.0123 2.58517 78.8127 2.06936C79.6131 1.55355 80.4224 1.14445 81.2406 0.84208C82.0766 0.539706 82.8859 0.335159 83.6685 0.228439C84.4511 0.121719 85.1359 0.0683594 85.7229 0.0683594C86.9857 0.0683594 88.1063 0.166186 89.0845 0.361839C90.0628 0.539706 90.881 0.78872 91.5391 1.10888C92.1972 1.41125 92.6952 1.76699 93.0332 2.17608C93.3711 2.58517 93.5401 3.00316 93.5401 3.43004C93.5401 3.7502 93.4867 4.07925 93.38 4.4172C93.2911 4.73736 93.1577 5.03973 92.9798 5.32432C92.802 5.59112 92.5796 5.81345 92.3128 5.99132C92.0638 6.1514 91.7792 6.23144 91.4591 6.23144C91.2634 6.23144 91.0855 6.12472 90.9255 5.91128C90.7654 5.69784 90.5964 5.43104 90.4185 5.11088C90.2407 4.79072 90.045 4.44388 89.8316 4.07036C89.6181 3.69684 89.3513 3.35 89.0312 3.02984C88.7288 2.70968 88.3642 2.44288 87.9373 2.22944C87.5104 2.016 87.0035 1.90928 86.4165 1.90928Z" fill="#BAC4D1"/>
<path d="M102.505 27.7622C102.505 27.3175 102.362 26.9796 102.078 26.7484C101.793 26.5171 101.428 26.4015 100.984 26.4015C100.361 26.4015 99.7654 26.5438 99.1963 26.8284C98.6449 27.113 98.1557 27.531 97.7289 28.0824C97.302 28.6338 96.964 29.3185 96.715 30.1367C96.466 30.9371 96.3415 31.8709 96.3415 32.9381C96.3415 33.9698 96.4127 34.8235 96.5549 35.4994C96.715 36.1753 96.9196 36.7178 97.1686 37.1269C97.4354 37.5182 97.7378 37.7939 98.0757 37.954C98.4137 38.1141 98.7694 38.1941 99.1429 38.1941C99.6054 38.1941 100.041 38.0785 100.45 37.8473C100.859 37.5982 101.215 37.287 101.517 36.9134C101.82 36.5399 102.06 36.1219 102.238 35.6595C102.416 35.197 102.505 34.7346 102.505 34.2721V27.7622ZM98.2625 16.0764C97.6577 16.0764 97.0974 16.1475 96.5816 16.2898C96.0658 16.4321 95.6211 16.61 95.2476 16.8234C94.8741 17.0368 94.5806 17.277 94.3672 17.5438C94.1537 17.7928 94.047 18.0329 94.047 18.2641C94.047 18.5309 94.1804 18.7266 94.4472 18.8511C94.7318 18.9578 95.0431 19.0912 95.381 19.2513C95.719 19.3936 96.0213 19.607 96.2881 19.8916C96.5727 20.1584 96.715 20.5764 96.715 21.1456C96.715 21.5191 96.635 21.8659 96.4749 22.1861C96.3326 22.4885 96.1281 22.7642 95.8613 23.0132C95.6123 23.2444 95.3099 23.4312 94.9541 23.5734C94.6162 23.698 94.2605 23.7602 93.8869 23.7602C92.8909 23.7602 92.0816 23.4223 91.4591 22.7464C90.8543 22.0705 90.5519 21.1722 90.5519 20.0517C90.5519 18.9667 90.8365 18.0418 91.4057 17.277C91.9749 16.4944 92.713 15.854 93.6201 15.356C94.5451 14.858 95.5856 14.4934 96.7417 14.2621C97.8978 14.0131 99.054 13.8886 100.21 13.8886C101.597 13.8886 102.923 14.0398 104.185 14.3422C105.448 14.6445 106.56 15.1248 107.52 15.7829C108.499 16.441 109.272 17.277 109.842 18.2908C110.429 19.3046 110.722 20.5319 110.722 21.9726V37.0468C110.722 37.2069 110.731 37.3848 110.749 37.5804C110.766 37.7761 110.811 37.954 110.882 38.1141C110.953 38.2741 111.06 38.4075 111.202 38.5143C111.345 38.621 111.549 38.6743 111.816 38.6743C112.136 38.6743 112.43 38.5587 112.696 38.3275C112.981 38.0785 113.23 37.8295 113.443 37.5804L114.11 38.1407C113.844 38.5143 113.523 38.9233 113.15 39.368C112.776 39.8127 112.323 40.2307 111.789 40.622C111.256 41.0133 110.633 41.3423 109.922 41.6091C109.21 41.8759 108.401 42.0093 107.494 42.0093C106.373 42.0093 105.377 41.6803 104.506 41.0222C103.634 40.3463 103.065 39.3147 102.798 37.9273C102.229 38.6921 101.633 39.3324 101.011 39.8483C100.406 40.3641 99.7832 40.7821 99.1429 41.1022C98.5026 41.4224 97.8534 41.6536 97.1953 41.7959C96.5549 41.9382 95.9057 42.0093 95.2476 42.0093C94.3939 42.0093 93.5668 41.8759 92.7664 41.6091C91.966 41.3423 91.2456 40.9243 90.6053 40.3552C89.9828 39.7682 89.4759 39.0123 89.0845 38.0874C88.711 37.1625 88.5243 36.033 88.5243 34.699C88.5243 33.0804 88.8444 31.7553 89.4847 30.7237C90.1251 29.6921 90.961 28.8294 91.9927 28.1357C93.0421 27.4243 94.2249 26.8195 95.5411 26.3215C96.8751 25.8235 98.2358 25.2988 99.6231 24.7474C100.655 24.3383 101.402 23.7335 101.864 22.9331C102.345 22.1149 102.585 21.279 102.585 20.4252C102.585 19.109 102.193 18.0596 101.411 17.277C100.646 16.4766 99.5965 16.0764 98.2625 16.0764Z" fill="#BAC4D1"/>
<path d="M134.654 23.1199C134.103 23.1199 133.64 23.0398 133.267 22.8798C132.893 22.7019 132.591 22.4707 132.36 22.1861C132.128 21.9015 131.959 21.5902 131.853 21.2523C131.746 20.8966 131.693 20.5319 131.693 20.1584C131.693 19.6782 131.719 19.2157 131.773 18.771C131.844 18.3264 131.853 17.9262 131.799 17.5704C131.764 17.2147 131.63 16.9301 131.399 16.7167C131.168 16.5032 130.759 16.3965 130.172 16.3965C129.549 16.3965 128.891 16.5744 128.197 16.9301C127.504 17.2859 126.872 17.8461 126.303 18.611C125.734 19.3758 125.263 20.363 124.889 21.5724C124.516 22.7642 124.329 24.2049 124.329 25.8946C124.329 27.7622 124.498 29.4697 124.836 31.0172C125.191 32.5468 125.716 33.8541 126.41 34.9391C127.104 36.0241 127.966 36.869 128.998 37.4737C130.029 38.0607 131.239 38.3542 132.626 38.3542C133.249 38.3542 133.836 38.283 134.387 38.1407C134.956 37.9984 135.49 37.8028 135.988 37.5538C136.486 37.3048 136.957 37.0202 137.402 36.7C137.864 36.3621 138.309 36.0063 138.736 35.6328L139.403 36.2731C138.994 36.8245 138.469 37.4293 137.829 38.0874C137.189 38.7455 136.415 39.368 135.508 39.955C134.601 40.5241 133.542 41.0044 132.333 41.3957C131.123 41.7692 129.745 41.956 128.197 41.956C126.65 41.956 125.138 41.6625 123.662 41.0755C122.203 40.4708 120.905 39.5992 119.767 38.4609C118.628 37.3225 117.712 35.9441 117.019 34.3255C116.343 32.6891 116.005 30.8304 116.005 28.7494C116.005 27.1308 116.209 25.6456 116.618 24.2938C117.027 22.9242 117.579 21.6881 118.272 20.5853C118.984 19.4825 119.802 18.5131 120.727 17.6772C121.67 16.8412 122.657 16.1475 123.689 15.5961C124.72 15.0269 125.77 14.6001 126.837 14.3155C127.922 14.0309 128.962 13.8886 129.958 13.8886C131.275 13.8886 132.422 14.0398 133.4 14.3422C134.378 14.6445 135.188 15.0447 135.828 15.5428C136.486 16.0408 136.975 16.6189 137.295 17.277C137.615 17.9173 137.776 18.5843 137.776 19.278C137.776 19.7938 137.704 20.2918 137.562 20.772C137.438 21.2345 137.242 21.6436 136.975 21.9993C136.726 22.3373 136.406 22.613 136.015 22.8264C135.623 23.0221 135.17 23.1199 134.654 23.1199Z" fill="#BAC4D1"/>
<path d="M151.649 16.1831V35.8996C151.649 36.8423 151.827 37.5004 152.183 37.8739C152.538 38.2297 153.028 38.4075 153.65 38.4075C154.13 38.4075 154.557 38.2741 154.931 38.0073C155.304 37.7405 155.624 37.4382 155.891 37.1002C156.211 36.7267 156.487 36.2909 156.718 35.7929L157.545 36.1664C157.279 36.7356 156.958 37.3581 156.585 38.034C156.229 38.7099 155.749 39.3413 155.144 39.9283C154.539 40.4975 153.775 40.9777 152.85 41.369C151.943 41.7603 150.795 41.956 149.408 41.956C148.625 41.956 147.869 41.8404 147.14 41.6091C146.429 41.3779 145.788 41.0133 145.219 40.5153C144.668 40.0172 144.223 39.3947 143.885 38.6477C143.547 37.9006 143.378 37.0024 143.378 35.953V16.1831H140.39V14.2621C140.888 14.2621 141.582 14.1376 142.471 13.8886C143.361 13.6218 144.268 13.186 145.193 12.5813C146.135 11.9765 147.007 11.1672 147.807 10.1534C148.608 9.13956 149.177 7.8856 149.515 6.39152H151.649V14.2621H155.998C157.421 14.2621 158.132 14.022 158.132 13.5418C158.132 13.3639 158.043 13.2483 157.866 13.1949C157.688 13.1238 157.483 13.0437 157.252 12.9548C157.039 12.8481 156.843 12.7058 156.665 12.5279C156.487 12.3501 156.398 12.0566 156.398 11.6475C156.398 11.1495 156.549 10.7581 156.852 10.4736C157.172 10.189 157.581 10.0467 158.079 10.0467C158.399 10.0467 158.675 10.1178 158.906 10.2601C159.155 10.3846 159.36 10.5625 159.52 10.7937C159.68 11.0072 159.795 11.2562 159.867 11.5408C159.956 11.8253 160 12.1099 160 12.3945C160 13.5507 159.662 14.4756 158.986 15.1692C158.328 15.8451 157.261 16.1831 155.785 16.1831H151.649Z" fill="#BAC4D1"/>
</g>
</svg>
